<svg id="Layer_1" data-name="Layer 1" xmlns="http://www.w3.org/2000/svg" xmlns:xlink="http://www.w3.org/1999/xlink" width="345.32" height="337.45" viewBox="0 0 345.32 337.45"><defs><style>.cls-1,.cls-10,.cls-110,.cls-113,.cls-117,.cls-7,.cls-8,.cls-9{fill:none;}.cls-1,.cls-10,.cls-9{stroke:#cb378e;}.cls-1{stroke-width:4.79px;}.cls-2{fill:#cb378e;}.cls-3{fill:#b7337f;}.cls-102,.cls-107,.cls-114,.cls-4{fill:#fff;}.cls-103,.cls-105,.cls-108,.cls-115,.cls-116,.cls-5{fill:#010101;}.cls-11,.cls-12,.cls-13,.cls-14,.cls-15,.cls-16,.cls-6{fill:#79246c;}.cls-7,.cls-8{stroke:#e293a4;}.cls-7{stroke-width:9.48px;}.cls-8{stroke-opacity:0.78;stroke-width:9.48px;}.cls-9{stroke-width:5.01px;}.cls-10{stroke-width:5.36px;}.cls-11{fill-opacity:0.64;}.cls-12{fill-opacity:0.76;}.cls-13{fill-opacity:0.62;}.cls-14{fill-opacity:0.74;}.cls-15{fill-opacity:0.78;}.cls-16{fill-opacity:0.61;}.cls-17,.cls-18{fill:#2b1010;}.cls-17{fill-opacity:0.19;}.cls-100,.cls-101,.cls-102,.cls-103,.cls-104,.cls-105,.cls-106,.cls-107,.cls-108,.cls-109,.cls-116,.cls-19,.cls-20,.cls-21,.cls-23,.cls-24,.cls-26,.cls-27,.cls-29,.cls-30,.cls-32,.cls-33,.cls-35,.cls-36,.cls-38,.cls-39,.cls-41,.cls-42,.cls-44,.cls-45,.cls-46,.cls-47,.cls-55,.cls-56,.cls-58,.cls-59,.cls-61,.cls-62,.cls-64,.cls-65,.cls-66,.cls-67,.cls-68,.cls-69,.cls-70,.cls-71,.cls-72,.cls-73,.cls-75,.cls-76,.cls-78,.cls-79,.cls-81,.cls-82,.cls-84,.cls-85,.cls-87,.cls-88,.cls-90,.cls-91,.cls-93,.cls-94,.cls-96,.cls-98,.cls-99{stroke:#010101;}.cls-100,.cls-101,.cls-110,.cls-111,.cls-114,.cls-117,.cls-19,.cls-20,.cls-22,.cls-23,.cls-25,.cls-26,.cls-28,.cls-29,.cls-31,.cls-32,.cls-34,.cls-35,.cls-37,.cls-38,.cls-40,.cls-41,.cls-43,.cls-44,.cls-45,.cls-46,.cls-48,.cls-49,.cls-50,.cls-51,.cls-52,.cls-53,.cls-54,.cls-55,.cls-57,.cls-58,.cls-60,.cls-61,.cls-63,.cls-72,.cls-74,.cls-75,.cls-77,.cls-78,.cls-80,.cls-81,.cls-83,.cls-84,.cls-86,.cls-87,.cls-89,.cls-90,.cls-92,.cls-93,.cls-95,.cls-97,.cls-98,.cls-99{stroke-linejoin:round;}.cls-19{fill:url(#linear-gradient);}.cls-110,.cls-111,.cls-113,.cls-114,.cls-117,.cls-20,.cls-22,.cls-23,.cls-25,.cls-26,.cls-28,.cls-29,.cls-31,.cls-32,.cls-34,.cls-35,.cls-37,.cls-38,.cls-40,.cls-41,.cls-43,.cls-48,.cls-49,.cls-50,.cls-51,.cls-52,.cls-53,.cls-54,.cls-55,.cls-57,.cls-58,.cls-60,.cls-61,.cls-63,.cls-72,.cls-74,.cls-75,.cls-77,.cls-78,.cls-80,.cls-81,.cls-83,.cls-84,.cls-86,.cls-87,.cls-89,.cls-90,.cls-92,.cls-93,.cls-95,.cls-97,.cls-98{stroke-linecap:round;}.cls-20{fill:url(#linear-gradient-2);}.cls-21{fill:url(#linear-gradient-3);}.cls-22,.cls-25,.cls-28,.cls-31,.cls-34,.cls-37,.cls-40,.cls-43,.cls-51,.cls-52,.cls-57,.cls-60,.cls-63,.cls-74,.cls-77,.cls-80,.cls-83,.cls-86,.cls-89,.cls-92,.cls-95,.cls-97{stroke:#97979e;}.cls-22{fill:url(#linear-gradient-4);}.cls-23{fill:url(#linear-gradient-5);}.cls-24{fill:url(#linear-gradient-6);}.cls-25{fill:url(#linear-gradient-7);}.cls-26{fill:url(#linear-gradient-8);}.cls-27{fill:url(#linear-gradient-9);}.cls-28{fill:url(#linear-gradient-10);}.cls-29{fill:url(#linear-gradient-11);}.cls-30{fill:url(#linear-gradient-12);}.cls-31{fill:url(#linear-gradient-13);}.cls-32{fill:url(#linear-gradient-14);}.cls-33{fill:url(#linear-gradient-15);}.cls-34{fill:url(#linear-gradient-16);}.cls-35{fill:url(#linear-gradient-17);}.cls-36{fill:url(#linear-gradient-18);}.cls-37{fill:url(#linear-gradient-19);}.cls-38{fill:url(#linear-gradient-20);}.cls-39{fill:url(#linear-gradient-21);}.cls-40{fill:url(#linear-gradient-22);}.cls-41{fill:url(#linear-gradient-23);}.cls-42{fill:url(#linear-gradient-24);}.cls-43{fill:url(#linear-gradient-25);}.cls-44{fill:url(#linear-gradient-26);}.cls-45{fill:url(#linear-gradient-27);}.cls-46{fill:url(#linear-gradient-28);}.cls-47{fill:url(#linear-gradient-29);}.cls-48{stroke:#525059;fill:url(#linear-gradient-30);}.cls-49{stroke:#626269;fill:url(#linear-gradient-31);}.cls-50{stroke:#707277;fill:url(#linear-gradient-32);}.cls-51{fill:url(#linear-gradient-33);}.cls-52{fill:url(#linear-gradient-34);}.cls-53,.cls-54{stroke:#8d9195;}.cls-53{fill:url(#linear-gradient-35);}.cls-54{fill:url(#linear-gradient-36);}.cls-55{fill:url(#linear-gradient-37);}.cls-56{fill:url(#linear-gradient-38);}.cls-57{fill:url(#linear-gradient-39);}.cls-58{fill:url(#linear-gradient-40);}.cls-59{fill:url(#linear-gradient-41);}.cls-60{fill:url(#linear-gradient-42);}.cls-61{fill:url(#linear-gradient-43);}.cls-62{fill:url(#linear-gradient-44);}.cls-63{fill:url(#linear-gradient-45);}.cls-64{fill:url(#linear-gradient-46);}.cls-65{fill:url(#linear-gradient-47);}.cls-66{fill:url(#linear-gradient-48);}.cls-67{fill:url(#linear-gradient-49);}.cls-68{fill:url(#linear-gradient-50);}.cls-69{fill:url(#linear-gradient-51);}.cls-70{fill:url(#linear-gradient-52);}.cls-71{fill:url(#linear-gradient-53);}.cls-72{fill:url(#linear-gradient-54);}.cls-73{fill:url(#linear-gradient-55);}.cls-74{fill:url(#linear-gradient-56);}.cls-75{fill:url(#linear-gradient-57);}.cls-76{fill:url(#linear-gradient-58);}.cls-77{fill:url(#linear-gradient-59);}.cls-78{fill:url(#linear-gradient-60);}.cls-79{fill:url(#linear-gradient-61);}.cls-80{fill:url(#linear-gradient-62);}.cls-81{fill:url(#linear-gradient-63);}.cls-82{fill:url(#linear-gradient-64);}.cls-83{fill:url(#linear-gradient-65);}.cls-84{fill:url(#linear-gradient-66);}.cls-85{fill:url(#linear-gradient-67);}.cls-86{fill:url(#linear-gradient-68);}.cls-87{fill:url(#linear-gradient-69);}.cls-88{fill:url(#linear-gradient-70);}.cls-89{fill:url(#linear-gradient-71);}.cls-90{fill:url(#linear-gradient-72);}.cls-91{fill:url(#linear-gradient-73);}.cls-92{fill:url(#linear-gradient-74);}.cls-93{fill:url(#linear-gradient-75);}.cls-94{fill:url(#linear-gradient-76);}.cls-95{fill:url(#linear-gradient-77);}.cls-96{fill:url(#linear-gradient-78);}.cls-97{fill:url(#linear-gradient-79);}.cls-98{fill:url(#linear-gradient-80);}.cls-99{fill:url(#linear-gradient-81);}.cls-100{fill:url(#linear-gradient-82);}.cls-101{fill:url(#linear-gradient-83);}.cls-102,.cls-103{stroke-width:0.75px;}.cls-104{fill:#00aeef;}.cls-104,.cls-113,.cls-114{stroke-width:2px;}.cls-104,.cls-111,.cls-112,.cls-114,.cls-115{fill-rule:evenodd;}.cls-105{stroke-width:1.36px;}.cls-106{fill:#27aae1;stroke-width:0.87px;}.cls-107{stroke-miterlimit:1;stroke-width:1.84px;}.cls-108{stroke-width:2.65px;}.cls-109{fill:#f9f1f2;stroke-width:2.7px;}.cls-110,.cls-111,.cls-113,.cls-114,.cls-117{stroke:#4e4e4e;}.cls-110{stroke-width:4px;}.cls-111,.cls-112{fill:#227d3e;isolation:isolate;}.cls-111{stroke-width:4.33px;opacity:0.99;}.cls-112{opacity:0.25;}.cls-116{stroke-width:0.46px;}.cls-117{stroke-width:3px;}.cls-118,.cls-122,.cls-123{fill:#e8c3dd;}.cls-118{stroke:#ed1c24;stroke-miterlimit:10;}.cls-119{fill:#ed1c24;}.cls-120{fill:#be1e2d;}.cls-121{fill:#60439a;opacity:0.19;}.cls-122{opacity:0.12;}.cls-123{opacity:0.28;}.cls-124{fill:#140004;}.cls-125{fill:#2b2e31;}.cls-126{fill:#006838;}.cls-127{fill:#e9a9cc;}</style><linearGradient id="linear-gradient" x1="-152.99" y1="737.35" x2="-152.77" y2="737.16" gradientTransform="matrix(165.87, 22.42, 17.33, -128.24, 12862.34, 98252.37)" gradientUnits="userSpaceOnUse"><stop offset="0" stop-color="#8662aa"/><stop offset="1" stop-color="#b4da9f"/></linearGradient><linearGradient id="linear-gradient-2" x1="-150.65" y1="740.7" x2="-150.42" y2="740.51" gradientTransform="matrix(52.66, 7.12, 1.78, -13.17, 6879.16, 11108)" xlink:href="#linear-gradient"/><linearGradient id="linear-gradient-3" x1="-150.8" y1="740.87" x2="-150.57" y2="740.68" gradientTransform="matrix(55.8, 7.54, 1.87, -13.84, 7292.65, 11674.94)" xlink:href="#linear-gradient"/><linearGradient id="linear-gradient-4" x1="-150.74" y1="741.75" x2="-150.52" y2="741.56" gradientTransform="matrix(54.68, 7.39, 1.52, -11.23, 7381.57, 9726.72)" xlink:href="#linear-gradient"/><linearGradient id="linear-gradient-5" x1="-150.65" y1="740.31" x2="-150.42" y2="740.12" gradientTransform="matrix(52.66, 7.12, 1.78, -13.17, 6880.23, 11101.53)" xlink:href="#linear-gradient"/><linearGradient id="linear-gradient-6" x1="-150.8" y1="740.5" x2="-150.57" y2="740.31" gradientTransform="matrix(55.8, 7.54, 1.87, -13.84, 7293.58, 11668.44)" xlink:href="#linear-gradient"/><linearGradient id="linear-gradient-7" x1="-150.74" y1="741.29" x2="-150.52" y2="741.1" gradientTransform="matrix(54.68, 7.39, 1.52, -11.23, 7382.5, 9720.17)" xlink:href="#linear-gradient"/><linearGradient id="linear-gradient-8" x1="-150.65" y1="739.91" x2="-150.42" y2="739.72" gradientTransform="matrix(52.66, 7.12, 1.78, -13.17, 6881.14, 11094.83)" xlink:href="#linear-gradient"/><linearGradient id="linear-gradient-9" x1="-150.8" y1="740.12" x2="-150.57" y2="739.93" gradientTransform="matrix(55.8, 7.54, 1.87, -13.84, 7294.63, 11661.77)" xlink:href="#linear-gradient"/><linearGradient id="linear-gradient-10" x1="-150.75" y1="740.82" x2="-150.52" y2="740.64" gradientTransform="matrix(54.68, 7.39, 1.52, -11.23, 7383.54, 9713.54)" xlink:href="#linear-gradient"/><linearGradient id="linear-gradient-11" x1="-150.65" y1="739.52" x2="-150.42" y2="739.33" gradientTransform="matrix(52.66, 7.12, 1.78, -13.17, 6881.84, 11088.18)" xlink:href="#linear-gradient"/><linearGradient id="linear-gradient-12" x1="-150.8" y1="739.74" x2="-150.57" y2="739.56" gradientTransform="matrix(55.8, 7.54, 1.87, -13.84, 7295.33, 11655.12)" xlink:href="#linear-gradient"/><linearGradient id="linear-gradient-13" x1="-150.74" y1="740.36" x2="-150.52" y2="740.18" gradientTransform="matrix(54.68, 7.39, 1.52, -11.23, 7384.25, 9706.9)" xlink:href="#linear-gradient"/><linearGradient id="linear-gradient-14" x1="-150.65" y1="739.13" x2="-150.42" y2="738.94" gradientTransform="matrix(52.66, 7.12, 1.78, -13.17, 6882.91, 11081.71)" xlink:href="#linear-gradient"/><linearGradient id="linear-gradient-15" x1="-150.8" y1="739.38" x2="-150.57" y2="739.19" gradientTransform="matrix(55.8, 7.54, 1.87, -13.84, 7296.26, 11648.62)" xlink:href="#linear-gradient"/><linearGradient id="linear-gradient-16" x1="-150.74" y1="739.91" x2="-150.52" y2="739.72" gradientTransform="matrix(54.68, 7.39, 1.52, -11.23, 7385.18, 9700.35)" xlink:href="#linear-gradient"/><linearGradient id="linear-gradient-17" x1="-150.65" y1="738.73" x2="-150.42" y2="738.55" gradientTransform="matrix(52.66, 7.12, 1.78, -13.17, 6883.82, 11075.01)" xlink:href="#linear-gradient"/><linearGradient id="linear-gradient-18" x1="-150.8" y1="739" x2="-150.57" y2="738.81" gradientTransform="matrix(55.8, 7.54, 1.87, -13.84, 7297.31, 11641.95)" xlink:href="#linear-gradient"/><linearGradient id="linear-gradient-19" x1="-150.75" y1="739.44" x2="-150.52" y2="739.26" gradientTransform="matrix(54.68, 7.39, 1.52, -11.23, 7386.22, 9693.73)" xlink:href="#linear-gradient"/><linearGradient id="linear-gradient-20" x1="-150.65" y1="738.34" x2="-150.42" y2="738.15" gradientTransform="matrix(52.66, 7.12, 1.78, -13.17, 6884.52, 11068.36)" xlink:href="#linear-gradient"/><linearGradient id="linear-gradient-21" x1="-150.8" y1="738.62" x2="-150.57" y2="738.44" gradientTransform="matrix(55.8, 7.54, 1.87, -13.84, 7298.01, 11635.3)" xlink:href="#linear-gradient"/><linearGradient id="linear-gradient-22" x1="-150.74" y1="738.98" x2="-150.52" y2="738.79" gradientTransform="matrix(54.68, 7.39, 1.52, -11.23, 7386.93, 9687.08)" xlink:href="#linear-gradient"/><linearGradient id="linear-gradient-23" x1="-150.65" y1="737.95" x2="-150.42" y2="737.77" gradientTransform="matrix(52.66, 7.12, 1.78, -13.17, 6885.59, 11061.89)" xlink:href="#linear-gradient"/><linearGradient id="linear-gradient-24" x1="-150.8" y1="738.26" x2="-150.57" y2="738.07" gradientTransform="matrix(55.8, 7.54, 1.87, -13.84, 7298.94, 11628.8)" xlink:href="#linear-gradient"/><linearGradient id="linear-gradient-25" x1="-150.74" y1="738.53" x2="-150.52" y2="738.34" gradientTransform="matrix(54.68, 7.39, 1.52, -11.23, 7387.85, 9680.53)" xlink:href="#linear-gradient"/><linearGradient id="linear-gradient-26" x1="-152.55" y1="737.68" x2="-152.32" y2="737.49" gradientTransform="matrix(252.22, 34.1, 22.65, -167.55, 21973.45, 129067.23)" xlink:href="#linear-gradient"/><linearGradient id="linear-gradient-27" x1="-153.22" y1="737.85" x2="-152.99" y2="737.66" gradientTransform="matrix(226.04, 30.56, 29.17, -215.75, 13390.83, 164149.74)" xlink:href="#linear-gradient"/><linearGradient id="linear-gradient-28" x1="-152.57" y1="737.51" x2="-152.34" y2="737.32" gradientTransform="matrix(286.7, 38.76, 15.38, -113.79, 32604.73, 90088.44)" xlink:href="#linear-gradient"/><linearGradient id="linear-gradient-29" x1="-152.88" y1="736.83" x2="-152.64" y2="736.64" gradientTransform="matrix(229.03, 30.96, 47.92, -354.47, -36.5, 266099.17)" xlink:href="#linear-gradient"/><linearGradient id="linear-gradient-30" x1="-152.52" y1="736.3" x2="-152.26" y2="736.08" gradientTransform="matrix(101.1, 13.67, 10.62, -78.58, 7875.7, 60185.76)" xlink:href="#linear-gradient"/><linearGradient id="linear-gradient-31" x1="-151.95" y1="735.86" x2="-151.72" y2="735.67" gradientTransform="matrix(95.77, 12.95, 6.15, -45.47, 10294.58, 35675.62)" xlink:href="#linear-gradient"/><linearGradient id="linear-gradient-32" x1="-151.15" y1="736.33" x2="-150.92" y2="736.15" gradientTransform="matrix(83.02, 11.22, 11.62, -85.98, 4242.35, 65242.99)" xlink:href="#linear-gradient"/><linearGradient id="linear-gradient-33" x1="-149.96" y1="736.49" x2="-149.73" y2="736.3" gradientTransform="matrix(59.05, 7.98, 27.34, -202.27, -11026.72, 150372.4)" xlink:href="#linear-gradient"/><linearGradient id="linear-gradient-34" x1="-151.69" y1="735.02" x2="-151.46" y2="734.83" gradientTransform="matrix(105.92, 14.32, 15.45, -114.3, 4969.66, 86365.34)" xlink:href="#linear-gradient"/><linearGradient id="linear-gradient-35" x1="-152" y1="735.01" x2="-151.77" y2="734.83" gradientTransform="matrix(96.47, 13.04, 15.75, -116.5, 3357.72, 87800.26)" xlink:href="#linear-gradient"/><linearGradient id="linear-gradient-36" x1="-151.99" y1="736.4" x2="-151.76" y2="736.22" gradientTransform="matrix(97.43, 13.17, 22.66, -167.62, -1608.56, 125647.55)" xlink:href="#linear-gradient"/><linearGradient id="linear-gradient-37" x1="-150.65" y1="737.57" x2="-150.42" y2="737.38" gradientTransform="matrix(52.66, 7.12, 1.78, -13.17, 6886.27, 11055.4)" xlink:href="#linear-gradient"/><linearGradient id="linear-gradient-38" x1="-150.8" y1="737.89" x2="-150.57" y2="737.7" gradientTransform="matrix(55.8, 7.54, 1.87, -13.84, 7299.77, 11622.32)" xlink:href="#linear-gradient"/><linearGradient id="linear-gradient-39" x1="-150.74" y1="738.08" x2="-150.52" y2="737.89" gradientTransform="matrix(54.68, 7.39, 1.52, -11.23, 7388.69, 9674.06)" xlink:href="#linear-gradient"/><linearGradient id="linear-gradient-40" x1="-150.65" y1="737.18" x2="-150.42" y2="737" gradientTransform="matrix(52.66, 7.12, 1.78, -13.17, 6887.2, 11048.9)" xlink:href="#linear-gradient"/><linearGradient id="linear-gradient-41" x1="-150.8" y1="737.52" x2="-150.57" y2="737.34" gradientTransform="matrix(55.8, 7.54, 1.87, -13.84, 7300.7, 11615.81)" xlink:href="#linear-gradient"/><linearGradient id="linear-gradient-42" x1="-150.74" y1="737.62" x2="-150.52" y2="737.44" gradientTransform="matrix(54.68, 7.39, 1.52, -11.23, 7389.6, 9667.61)" xlink:href="#linear-gradient"/><linearGradient id="linear-gradient-43" x1="-150.65" y1="736.79" x2="-150.42" y2="736.6" gradientTransform="matrix(52.66, 7.12, 1.78, -13.17, 6888.25, 11042.23)" xlink:href="#linear-gradient"/><linearGradient id="linear-gradient-44" x1="-150.8" y1="737.14" x2="-150.57" y2="736.96" gradientTransform="matrix(55.8, 7.54, 1.87, -13.84, 7301.75, 11609.14)" xlink:href="#linear-gradient"/><linearGradient id="linear-gradient-45" x1="-150.75" y1="737.16" x2="-150.52" y2="736.97" gradientTransform="matrix(54.68, 7.39, 1.52, -11.23, 7390.65, 9660.97)" xlink:href="#linear-gradient"/><linearGradient id="linear-gradient-46" x1="-152.87" y1="736.52" x2="-152.64" y2="736.33" gradientTransform="matrix(229.14, 30.98, 28.08, -207.7, 14606.46, 157912.3)" xlink:href="#linear-gradient"/><linearGradient id="linear-gradient-47" x1="-152.9" y1="733.87" x2="-152.68" y2="733.69" gradientTransform="matrix(229.61, 31.04, 11.1, -82.09, 27215.59, 65178.28)" xlink:href="#linear-gradient"/><linearGradient id="linear-gradient-48" x1="-150.96" y1="735.1" x2="-150.73" y2="734.92" gradientTransform="matrix(50.87, 6.88, 16.23, -120.09, -3970.13, 89503.31)" xlink:href="#linear-gradient"/><linearGradient id="linear-gradient-49" x1="-150.1" y1="735.15" x2="-149.77" y2="734.88" gradientTransform="matrix(48.44, 6.55, 16.18, -119.72, -4355.6, 89176.39)" xlink:href="#linear-gradient"/><linearGradient id="linear-gradient-50" x1="-152.86" y1="736.63" x2="-152.64" y2="736.44" gradientTransform="matrix(228.1, 30.83, 15.12, -111.87, 23981.37, 87357.1)" xlink:href="#linear-gradient"/><linearGradient id="linear-gradient-51" x1="-151.99" y1="736.39" x2="-151.76" y2="736.21" gradientTransform="matrix(98.85, 13.36, 8.67, -64.13, 8905.13, 49506.24)" xlink:href="#linear-gradient"/><linearGradient id="linear-gradient-52" x1="34.51" y1="736.35" x2="34.73" y2="736.17" gradientTransform="matrix(0.99, 0.13, 22.88, -169.25, -16613.95, 124846.14)" xlink:href="#linear-gradient"/><linearGradient id="linear-gradient-53" x1="-41.53" y1="736.35" x2="-41.31" y2="736.17" gradientTransform="matrix(0.99, 0.13, 22.88, -169.25, -16515.06, 124859.51)" xlink:href="#linear-gradient"/><linearGradient id="linear-gradient-54" x1="-150.65" y1="736.39" x2="-150.42" y2="736.2" gradientTransform="matrix(52.66, 7.12, 1.78, -13.17, 6888.95, 11035.58)" xlink:href="#linear-gradient"/><linearGradient id="linear-gradient-55" x1="-150.8" y1="736.77" x2="-150.57" y2="736.58" gradientTransform="matrix(55.8, 7.54, 1.87, -13.84, 7302.44, 11602.5)" xlink:href="#linear-gradient"/><linearGradient id="linear-gradient-56" x1="-150.74" y1="736.7" x2="-150.52" y2="736.51" gradientTransform="matrix(54.68, 7.39, 1.52, -11.23, 7391.37, 9654.24)" xlink:href="#linear-gradient"/><linearGradient id="linear-gradient-57" x1="-150.65" y1="736" x2="-150.42" y2="735.82" gradientTransform="matrix(52.66, 7.12, 1.78, -13.17, 6889.88, 11029.08)" xlink:href="#linear-gradient"/><linearGradient id="linear-gradient-58" x1="-150.8" y1="736.4" x2="-150.57" y2="736.21" gradientTransform="matrix(55.8, 7.54, 1.87, -13.84, 7303.37, 11595.99)" xlink:href="#linear-gradient"/><linearGradient id="linear-gradient-59" x1="-150.74" y1="736.24" x2="-150.52" y2="736.06" gradientTransform="matrix(54.68, 7.39, 1.52, -11.23, 7392.28, 9647.79)" xlink:href="#linear-gradient"/><linearGradient id="linear-gradient-60" x1="-150.65" y1="735.61" x2="-150.42" y2="735.42" gradientTransform="matrix(52.66, 7.12, 1.78, -13.17, 6890.93, 11022.41)" xlink:href="#linear-gradient"/><linearGradient id="linear-gradient-61" x1="-150.8" y1="736.02" x2="-150.57" y2="735.84" gradientTransform="matrix(55.8, 7.54, 1.87, -13.84, 7304.43, 11589.32)" xlink:href="#linear-gradient"/><linearGradient id="linear-gradient-62" x1="-150.75" y1="735.78" x2="-150.52" y2="735.59" gradientTransform="matrix(54.68, 7.39, 1.52, -11.23, 7393.33, 9641.15)" xlink:href="#linear-gradient"/><linearGradient id="linear-gradient-63" x1="-150.65" y1="735.21" x2="-150.42" y2="735.03" gradientTransform="matrix(52.66, 7.12, 1.78, -13.17, 6891.63, 11015.76)" xlink:href="#linear-gradient"/><linearGradient id="linear-gradient-64" x1="-150.8" y1="735.65" x2="-150.57" y2="735.46" gradientTransform="matrix(55.8, 7.54, 1.87, -13.84, 7305.12, 11582.68)" xlink:href="#linear-gradient"/><linearGradient id="linear-gradient-65" x1="-150.74" y1="735.31" x2="-150.52" y2="735.13" gradientTransform="matrix(54.68, 7.39, 1.52, -11.23, 7394.05, 9634.42)" xlink:href="#linear-gradient"/><linearGradient id="linear-gradient-66" x1="-150.65" y1="734.83" x2="-150.42" y2="734.64" gradientTransform="matrix(52.66, 7.12, 1.78, -13.17, 6892.56, 11009.26)" xlink:href="#linear-gradient"/><linearGradient id="linear-gradient-67" x1="-150.8" y1="735.28" x2="-150.57" y2="735.09" gradientTransform="matrix(55.8, 7.54, 1.87, -13.84, 7306.05, 11576.17)" xlink:href="#linear-gradient"/><linearGradient id="linear-gradient-68" x1="-150.74" y1="734.86" x2="-150.52" y2="734.67" gradientTransform="matrix(54.68, 7.39, 1.52, -11.23, 7394.96, 9627.97)" xlink:href="#linear-gradient"/><linearGradient id="linear-gradient-69" x1="-150.65" y1="734.43" x2="-150.42" y2="734.24" gradientTransform="matrix(52.66, 7.12, 1.78, -13.17, 6893.61, 11002.59)" xlink:href="#linear-gradient"/><linearGradient id="linear-gradient-70" x1="-150.8" y1="734.9" x2="-150.57" y2="734.71" gradientTransform="matrix(55.8, 7.54, 1.87, -13.84, 7307.11, 11569.5)" xlink:href="#linear-gradient"/><linearGradient id="linear-gradient-71" x1="-150.75" y1="734.39" x2="-150.52" y2="734.21" gradientTransform="matrix(54.68, 7.39, 1.52, -11.23, 7396.01, 9621.33)" xlink:href="#linear-gradient"/><linearGradient id="linear-gradient-72" x1="-150.65" y1="734.04" x2="-150.42" y2="733.85" gradientTransform="matrix(52.66, 7.12, 1.78, -13.17, 6894.54, 10995.97)" xlink:href="#linear-gradient"/><linearGradient id="linear-gradient-73" x1="-150.8" y1="734.53" x2="-150.58" y2="734.34" gradientTransform="matrix(55.8, 7.54, 1.87, -13.84, 7308.04, 11562.89)" xlink:href="#linear-gradient"/><linearGradient id="linear-gradient-74" x1="-150.75" y1="733.93" x2="-150.52" y2="733.74" gradientTransform="matrix(54.68, 7.39, 1.52, -11.23, 7396.95, 9614.64)" xlink:href="#linear-gradient"/><linearGradient id="linear-gradient-75" x1="-150.64" y1="731.6" x2="-150.41" y2="731.42" gradientTransform="matrix(52.66, 7.12, 1.09, -8.07, 7402.97, 7236.24)" xlink:href="#linear-gradient"/><linearGradient id="linear-gradient-76" x1="-150.8" y1="734.16" x2="-150.58" y2="733.97" gradientTransform="matrix(55.8, 7.54, 1.87, -13.84, 7308.97, 11556.39)" xlink:href="#linear-gradient"/><linearGradient id="linear-gradient-77" x1="-150.75" y1="733.48" x2="-150.52" y2="733.29" gradientTransform="matrix(54.68, 7.39, 1.52, -11.23, 7397.88, 9608.19)" xlink:href="#linear-gradient"/><linearGradient id="linear-gradient-78" x1="-150.83" y1="733.63" x2="-150.6" y2="733.44" gradientTransform="matrix(56.26, 7.61, 1.79, -13.21, 7444.05, 11095.26)" xlink:href="#linear-gradient"/><linearGradient id="linear-gradient-79" x1="-150.75" y1="733.01" x2="-150.52" y2="732.82" gradientTransform="matrix(54.68, 7.39, 1.52, -11.23, 7398.92, 9601.54)" xlink:href="#linear-gradient"/><linearGradient id="linear-gradient-80" x1="-150.65" y1="729.96" x2="-150.42" y2="729.77" gradientTransform="matrix(52.81, 7.14, 0.93, -6.91, 7542.63, 6381.19)" xlink:href="#linear-gradient"/><linearGradient id="linear-gradient-81" x1="-152.46" y1="737.7" x2="-152.23" y2="737.51" gradientTransform="matrix(218.15, 29.49, 31.78, -235.13, 10026.3, 178225.4)" xlink:href="#linear-gradient"/><linearGradient id="linear-gradient-82" x1="-153.41" y1="737.7" x2="-153.18" y2="737.51" gradientTransform="matrix(285.13, 38.54, 22.65, -167.55, 27308, 129784.57)" xlink:href="#linear-gradient"/><linearGradient id="linear-gradient-83" x1="-152.77" y1="738.03" x2="-152.54" y2="737.85" gradientTransform="matrix(138.24, 18.69, 23.28, -172.21, 4210.24, 130237.05)" xlink:href="#linear-gradient"/></defs><path class="cls-1" d="M318.23,116.81c-1.15-10.57-10.68-17-20.42-16.22l-1-.31"/><path class="cls-1" d="M292.07,6.79c-4.7,4.67-10.8,8.28-13.57,14.65-1.15,2.74-1.11,5.76-1.83,8.62-.79,4.3-1.4,8.64-2.21,13"/><path class="cls-2" d="M310,86c-.47,11.92,5.59,20.7-15.72,26.53-10.34,2.82-6,6.26-42.47-.45-11.63-2.13-13.88-4.58-23-10.06-14.21-8.52-11.48-29.38-8.76-40.58,5.44-22.38,28.48-36,51.47-30.41s40.3,9.7,38.49,55Z"/><path class="cls-3" d="M267.3,44.06c-1.72,7.07-8.31,11.53-14.72,10s-10.22-8.55-8.51-15.62,8.31-11.53,14.73-10S269,37,267.3,44.06Z"/><path class="cls-3" d="M286.46,46.4c-1.71,7.07-8.31,11.53-14.72,10s-10.22-8.56-8.5-15.63,8.31-11.53,14.72-10S288.18,39.33,286.46,46.4Z"/><path class="cls-4" d="M266.68,43a10.84,10.84,0,1,1-8-13A10.81,10.81,0,0,1,266.68,43Z"/><path class="cls-4" d="M284,45.33a10.83,10.83,0,1,1-8-13A10.79,10.79,0,0,1,284,45.33Z"/><path class="cls-5" d="M262.81,44c-.68,2.81-3.21,4.62-5.64,4s-3.85-3.36-3.17-6.17,3.21-4.62,5.65-4S263.5,41.14,262.81,44Z"/><path class="cls-5" d="M273.47,44.93c-.68,2.81-3.21,4.62-5.64,4s-3.86-3.36-3.17-6.17,3.21-4.62,5.64-4S274.16,42.11,273.47,44.93Z"/><path class="cls-6" d="M282.86,58c11.82,2.72,12.82,21.4,3.7,28.35-7.58,5.5-16.65,8.15-25.22,11.43-9.63,2.53-17.41-5-24.23-10.62-6.79-3.64-13.24-12.05-8.73-20.19,3.62-7.58,13.05-7.43,19.45-4.54,5.77,2.86,12.48,6.2,18.65,1.84,5.17-2.46,10.38-7.67,16.38-6.27Z"/><path class="cls-2" d="M230,12.5a6.05,6.05,0,1,1-11.76-2.85A6.05,6.05,0,1,1,230,12.5Z"/><path class="cls-5" d="M284.47,28.41c-6.61,1.65-14.27,4-20.57.19-2.83-2.74-5.41-7.12-10-6.26-5.58.79-3.31,6.73.59,8.23a30.77,30.77,0,0,0,22.23,6.61c3.95.28,12.48-1.27,10.27-6.71a8.13,8.13,0,0,0-2.49-2.06Z"/><path class="cls-7" d="M304.17,93.85c-.83,3.43-5.16,5.34-9.66,4.24s-7.47-4.77-6.64-8.21,5.16-5.34,9.67-4.24S305,90.41,304.17,93.85Z"/><path class="cls-7" d="M233.4,90.81c-.6,2.5-3.77,3.87-7.07,3.07s-5.49-3.48-4.88-6,3.77-3.87,7.07-3.07S234,88.32,233.4,90.81Z"/><path class="cls-8" d="M283.25,106.38c-.74,3-5,4.62-9.49,3.52s-7.55-4.44-6.81-7.48,5-4.62,9.48-3.52S284,103.34,283.25,106.38Z"/><path class="cls-2" d="M204,23.72a6.05,6.05,0,1,1-4.39-7.55A6.19,6.19,0,0,1,204,23.72Z"/><path class="cls-2" d="M298.07,7.71a6.05,6.05,0,1,1-11.75-2.85A6.17,6.17,0,0,1,293.68.17,6.16,6.16,0,0,1,298.07,7.71Z"/><path class="cls-2" d="M330.69,39.93a6.05,6.05,0,1,1-4.39-7.54A6.18,6.18,0,0,1,330.69,39.93Z"/><path class="cls-2" d="M345.13,87.18a6.05,6.05,0,1,1-4.39-7.55A6.18,6.18,0,0,1,345.13,87.18Z"/><path class="cls-2" d="M324.22,122.05a6.05,6.05,0,1,1-4.39-7.55A6.19,6.19,0,0,1,324.22,122.05Z"/><path class="cls-2" d="M282.28,138.85a6.05,6.05,0,1,1-4.39-7.54A6.17,6.17,0,0,1,282.28,138.85Z"/><path class="cls-2" d="M202.12,112.36a6.05,6.05,0,1,1-4.39-7.55A6.17,6.17,0,0,1,202.12,112.36Z"/><path class="cls-2" d="M188.54,61.54A6.05,6.05,0,1,1,184.15,54,6.17,6.17,0,0,1,188.54,61.54Z"/><path class="cls-9" d="M222.16,10.93c14,41,20.86,24.14,20.86,24.14"/><path class="cls-1" d="M197.83,25.47c3.28,5.59,3.81,12.69,8.15,17.63,1.59,1.7,3.64,3.38,6.09,3.17,4.17,0,8.28-2.45,12.44-1.22a8.06,8.06,0,0,1,2.9,1.65"/><path class="cls-1" d="M186.34,59.93c3.73,2.17,6,6.06,8.93,9.16,2.07,2.29,4.77,4.64,8,4.31,3.06-.3,5.35-2.71,8-4.14,3.91-2.41,8.46-4.2,13-3.34"/><path class="cls-1" d="M196.86,110.54a20.77,20.77,0,0,1,12.4-10.3c4.37-1.91,9.18-2.12,13.62-3.74l.23-.1"/><path class="cls-1" d="M274.82,135.42c-1.4-3.6-1.47-7.63-2.85-11.24-2.66-5.29-7.28-9.05-10.74-13.72a11.51,11.51,0,0,1-1-2.35"/><path class="cls-1" d="M340.85,85.59c-12.71,2.67-25.45-1.21-35.64-8.84L303.76,76"/><path class="cls-10" d="M322,39.44c-3.26,9.81-13.27,14.09-19.78,9.52-3.27-1.52-6.64-3.4-10.41-2.66"/><path class="cls-11" d="M243.39,105.05c-.25,1-2,1.52-3.93,1s-3.26-1.69-3-2.74,2-1.52,3.93-1S243.64,104,243.39,105.05Z"/><path class="cls-12" d="M238.5,99.65a1.52,1.52,0,1,1-1.14-1.72A1.46,1.46,0,0,1,238.5,99.65Z"/><path class="cls-6" d="M235.4,102.22a1,1,0,0,1-1.18.66.92.92,0,1,1,1.18-.66Z"/><path class="cls-13" d="M234.17,99.35a.93.93,0,0,1-1.08.74,1,1,0,1,1,1.08-.74Z"/><path class="cls-6" d="M242.63,100.78a1,1,0,1,1-.73-1.18A1,1,0,0,1,242.63,100.78Z"/><path class="cls-6" d="M296.48,103.94a1.11,1.11,0,1,1-.81-1.32A1.09,1.09,0,0,1,296.48,103.94Z"/><path class="cls-6" d="M299.4,104.84a1,1,0,0,1-1.21.78,1,1,0,0,1,.49-2A1,1,0,0,1,299.4,104.84Z"/><path class="cls-14" d="M297.16,107.12a1.18,1.18,0,1,1-.82-1.58A1.27,1.27,0,0,1,297.16,107.12Z"/><path class="cls-15" d="M246.64,102.09c-.45-2-4.86-1.06-2.51.73,1.77,1.49-2.27,5.5,1.18,5.33,2.63-.55,3.29-4.4,1.33-6.06Z"/><path class="cls-16" d="M240.26,51.48c-.6,2.49-3.43,3.94-6.32,3.24s-4.74-3.29-4.14-5.78,3.44-3.93,6.33-3.23S240.87,49,240.26,51.48Z"/><path class="cls-16" d="M296.11,45.6c-4.94-1.23-10.5,2.36-12.26,7.58,0,1.94,1.87,2.81,3.41,3,1.72.34,3.8.71,4.6,2.6a10.09,10.09,0,0,1,2.29,4c.72,2.38.87,5,2.18,7.14,1.45.73,3-.7,4-1.86A18,18,0,0,0,303.52,60c.64-4.9-.76-10.41-4.61-13.16a8.35,8.35,0,0,0-2.8-1.27Z"/><path class="cls-4" d="M238.9,60.54a38.78,38.78,0,0,1,4.47.49c1.51.33,4.28,1.26,4.28,1.26l.47.38-.11-.05-2.93,8.19a1.33,1.33,0,0,1-1.6.45l-5.36-1.5a.79.79,0,0,1-.33-.82Z"/><path class="cls-4" d="M262.4,66.1v0h.13Zm0,0-4.23.19L253.28,65l-1.15,8a1.14,1.14,0,0,0,.76.8l4.93,1.51a1.79,1.79,0,0,0,1.6-.44l.17-.5a.51.51,0,0,1-.17,0,.82.82,0,0,1-.65-1,.84.84,0,0,1,1-.58,1,1,0,0,1,.29.14l2.3-6.73Z"/><path class="cls-17" d="M224.47,6c-2.16-.53-4.4,1.08-5,3.57a4.6,4.6,0,0,0,1.68,4.94,8.69,8.69,0,0,1,.23-2.45c.72-3,2.78-5.06,4.81-5.07a3.57,3.57,0,0,0-1.71-1Z"/><path class="cls-18" d="M215.58,1a8.59,8.59,0,0,1-.28,1,8,8,0,0,1,.21-1,6.72,6.72,0,0,1,.28-1S215.71.48,215.58,1Z"/><path class="cls-17" d="M198.32,17.29c-2.16-.53-4.4,1.08-5,3.57A4.6,4.6,0,0,0,195,25.8a9.11,9.11,0,0,1,.23-2.45c.73-3,2.78-5.06,4.81-5.07a3.52,3.52,0,0,0-1.71-1Z"/><path class="cls-17" d="M181.19,55.5c-2.23.25-3.9,2.53-3.75,5.06a4.31,4.31,0,0,0,3.08,4,8,8,0,0,1-.5-2.37c-.19-3,1.16-5.69,3.11-6.4a3.55,3.55,0,0,0-1.94-.34Z"/><path class="cls-17" d="M193,107.07a4.79,4.79,0,0,0-1.54,6.19,4,4,0,0,0,4.4,2.26,7.56,7.56,0,0,1-1.38-1.89c-1.32-2.63-1.09-5.62.44-7.12a3.71,3.71,0,0,0-1.92.56Z"/><path class="cls-17" d="M272.86,141.27a3.93,3.93,0,0,0,5.78,1,4.9,4.9,0,0,0,2-5A8.28,8.28,0,0,1,278.9,139c-2.4,1.69-5.18,1.75-6.6.25a4.23,4.23,0,0,0,.56,2Z"/><path class="cls-17" d="M316.56,125.17c1.84,1.29,4.42.58,5.77-1.57a4.86,4.86,0,0,0,0-5.33,8.69,8.69,0,0,1-1,2.25c-1.61,2.56-4.18,3.81-6.06,3.08a3.8,3.8,0,0,0,1.27,1.57Z"/><path class="cls-17" d="M341,90.61a4.73,4.73,0,0,0,3.24-5.44,4.21,4.21,0,0,0-3.47-3.66,8,8,0,0,1,.74,2.29c.48,3-.61,5.77-2.48,6.69a3.64,3.64,0,0,0,2,.12Z"/><path class="cls-17" d="M328.73,41.43a4.77,4.77,0,0,0,.11-6.36,4,4,0,0,0-4.81-1,7.29,7.29,0,0,1,1.77,1.47c1.89,2.17,2.33,5.11,1.17,6.94a3.89,3.89,0,0,0,1.76-1Z"/><path class="cls-17" d="M296.62,5.16A4.1,4.1,0,0,0,292.31,1a4.51,4.51,0,0,0-4.06,3.21,7.17,7.17,0,0,1,2.24-.49c2.82-.13,5.17,1.4,5.62,3.5a4.29,4.29,0,0,0,.51-2.07Z"/><path class="cls-19" d="M270.42,287.54c1.24-1.61,16.37-23.83,17-23l21.15,27.95a2.61,2.61,0,0,1-1.29,3.09L286.77,267l-16.37,23c-2.21-1-1.3-2.18,0-2.37Z"/><path class="cls-20" d="M276.61,287c-.11.79-3,1.05-6.47.58s-6.18-1.49-6.07-2.28,3-1.05,6.46-.58S276.71,286.22,276.61,287Z"/><path class="cls-21" d="M276.53,286.71c.58.69.53,1.37-.08,1.74s-3,.9-6.48.43-5.64-1.41-6-2a1.18,1.18,0,0,1,.27-1.83"/><path class="cls-22" d="M269.21,288.65a20.53,20.53,0,0,1-3.07-.73,9.34,9.34,0,0,1-1.64-.72,2,2,0,0,1-.46-.4,1.16,1.16,0,0,1-.26-.59,1.26,1.26,0,0,1,.11-.59l.06-.12.07.13c.26.46,1.26,1,2.8,1.41a26,26,0,0,0,6.68.9,11,11,0,0,0,2.07-.18,1.93,1.93,0,0,0,1-.48l.08-.09,0,.1a.84.84,0,0,1,0,.62.83.83,0,0,1-.34.41c-.78.53-2.78.76-5.16.58-.32,0-1.78-.2-2.05-.25Z"/><path class="cls-23" d="M276.81,285.6c-.11.79-3,1-6.46.58s-6.18-1.49-6.08-2.28,3-1,6.46-.58S276.91,284.81,276.81,285.6Z"/><path class="cls-24" d="M276.73,285.3c.58.69.53,1.37-.08,1.74s-3,.9-6.48.43-5.63-1.41-6-2a1.2,1.2,0,0,1,.27-1.84"/><path class="cls-25" d="M269.41,287.24a21.85,21.85,0,0,1-3.07-.73,8.61,8.61,0,0,1-1.64-.73,1.75,1.75,0,0,1-.46-.4,1.09,1.09,0,0,1-.26-.58,1.24,1.24,0,0,1,.11-.59l.06-.12.07.13c.26.46,1.26,1,2.8,1.41a26.42,26.42,0,0,0,6.68.9,10.89,10.89,0,0,0,2.07-.19,1.93,1.93,0,0,0,1-.47l.08-.1,0,.11a.84.84,0,0,1,0,.62.88.88,0,0,1-.34.41c-.78.53-2.78.76-5.16.58-.32,0-1.78-.2-2-.25Z"/><path class="cls-26" d="M277,284.15c-.11.79-3,1.05-6.46.58s-6.18-1.49-6.08-2.28,3-1.05,6.47-.58S277.15,283.36,277,284.15Z"/><path class="cls-27" d="M277,283.85c.58.69.54,1.37-.08,1.74s-3,.9-6.48.43-5.63-1.41-6-2a1.2,1.2,0,0,1,.27-1.84"/><path class="cls-28" d="M269.64,285.79a21.34,21.34,0,0,1-3.06-.73,8.45,8.45,0,0,1-1.65-.73,1.75,1.75,0,0,1-.46-.4,1.09,1.09,0,0,1-.26-.58,1.24,1.24,0,0,1,.11-.59l.06-.12.07.13c.26.46,1.26,1,2.8,1.41a26.42,26.42,0,0,0,6.68.9,11.93,11.93,0,0,0,2.07-.18,2,2,0,0,0,1-.48l.09-.1,0,.11a.84.84,0,0,1,0,.62.88.88,0,0,1-.34.41c-.78.53-2.78.76-5.16.58-.32,0-1.77-.2-2.05-.25Z"/><path class="cls-29" d="M277.19,282.7c-.11.79-3,1.05-6.46.59s-6.19-1.49-6.08-2.28,3-1.05,6.46-.58S277.29,281.91,277.19,282.7Z"/><path class="cls-30" d="M277.11,282.4c.58.7.53,1.38-.08,1.75s-3,.9-6.48.43-5.64-1.42-6-2a1.19,1.19,0,0,1,.27-1.83"/><path class="cls-31" d="M269.79,284.35a21.21,21.21,0,0,1-3.06-.74,7.92,7.92,0,0,1-1.65-.72,2,2,0,0,1-.46-.4,1.09,1.09,0,0,1-.26-.58,1.3,1.3,0,0,1,.11-.6l.06-.11.07.12c.26.47,1.26,1,2.8,1.41a26.43,26.43,0,0,0,6.68.91,10.89,10.89,0,0,0,2.07-.19,1.93,1.93,0,0,0,1-.47l.09-.1,0,.1a.84.84,0,0,1,0,.62.79.79,0,0,1-.34.41c-.78.54-2.78.76-5.16.59-.32,0-1.77-.2-2-.25Z"/><path class="cls-32" d="M277.39,281.29c-.11.79-3,1-6.46.59s-6.18-1.49-6.08-2.28,3-1.05,6.47-.59S277.5,280.5,277.39,281.29Z"/><path class="cls-33" d="M277.31,281c.58.69.54,1.38-.08,1.74s-3,.9-6.48.44-5.63-1.42-6-2a1.19,1.19,0,0,1,.27-1.83"/><path class="cls-34" d="M270,282.93a20.37,20.37,0,0,1-3.06-.73,8.49,8.49,0,0,1-1.65-.72,2,2,0,0,1-.46-.4,1.12,1.12,0,0,1-.26-.59,1.26,1.26,0,0,1,.11-.59l.06-.12.07.13c.26.46,1.26,1,2.8,1.41a26,26,0,0,0,6.68.9,11,11,0,0,0,2.07-.18,1.89,1.89,0,0,0,1-.48l.09-.09,0,.1a.84.84,0,0,1,0,.62.83.83,0,0,1-.34.41c-.78.53-2.78.76-5.16.59-.32,0-1.77-.21-2.05-.26Z"/><path class="cls-35" d="M277.62,279.84c-.1.79-3,1.05-6.46.58s-6.18-1.48-6.07-2.27,3-1,6.46-.59S277.73,279.05,277.62,279.84Z"/><path class="cls-36" d="M277.54,279.54c.58.69.54,1.38-.07,1.75s-3,.89-6.48.43-5.64-1.42-6-2a1.19,1.19,0,0,1,.27-1.83"/><path class="cls-37" d="M270.22,281.49a21.89,21.89,0,0,1-3.06-.74,8.77,8.77,0,0,1-1.65-.72,1.72,1.72,0,0,1-.45-.4,1,1,0,0,1-.27-.58,1.28,1.28,0,0,1,.11-.6l.07-.12.07.13c.25.47,1.26,1,2.79,1.41a26,26,0,0,0,6.68.9,10.16,10.16,0,0,0,2.07-.18,2,2,0,0,0,1.05-.47l.08-.1,0,.1a.84.84,0,0,1,0,.62.75.75,0,0,1-.34.41c-.78.54-2.78.76-5.16.59l-2-.25Z"/><path class="cls-38" d="M277.77,278.4c-.11.79-3,1.05-6.46.58s-6.18-1.49-6.08-2.28,3-1.05,6.46-.58S277.88,277.61,277.77,278.4Z"/><path class="cls-39" d="M277.69,278.1c.58.69.54,1.37-.08,1.74s-3,.9-6.48.43-5.63-1.41-6-2a1.2,1.2,0,0,1,.27-1.84"/><path class="cls-40" d="M270.37,280a22,22,0,0,1-3.06-.73,8.45,8.45,0,0,1-1.65-.73,1.56,1.56,0,0,1-.45-.4,1,1,0,0,1-.27-.58,1.24,1.24,0,0,1,.11-.59l.07-.12.06.13c.26.46,1.27,1,2.8,1.41a26.48,26.48,0,0,0,6.68.9,10.89,10.89,0,0,0,2.07-.19,1.9,1.9,0,0,0,1-.47l.09-.1,0,.11a.84.84,0,0,1,0,.62.82.82,0,0,1-.34.41c-.78.53-2.78.76-5.16.58-.32,0-1.77-.2-2.05-.25Z"/><path class="cls-41" d="M278,277c-.1.79-3,1.05-6.46.58s-6.18-1.49-6.07-2.28,3-1.05,6.46-.58S278.08,276.2,278,277Z"/><path class="cls-42" d="M277.89,276.68c.58.7.54,1.38-.07,1.75s-3,.9-6.48.43-5.64-1.41-6-2a1.19,1.19,0,0,1,.27-1.83"/><path class="cls-43" d="M270.57,278.63a21.89,21.89,0,0,1-3.06-.74,8.17,8.17,0,0,1-1.65-.72,1.56,1.56,0,0,1-.45-.4,1,1,0,0,1-.27-.58,1.14,1.14,0,0,1,.12-.59l.06-.12.07.12c.25.47,1.26,1,2.79,1.41a26.49,26.49,0,0,0,6.68.91,10.81,10.81,0,0,0,2.07-.19,2,2,0,0,0,1.05-.47l.08-.1,0,.1a.84.84,0,0,1,0,.62.75.75,0,0,1-.34.41c-.77.54-2.78.77-5.16.59-.32,0-1.77-.2-2.05-.25Z"/><path class="cls-44" d="M266.83,288.45c-2.58-1.37-35-20.49-35.68-19.6l-24.32,31.36c.14,1.32.9,2.38,3.21,2.81l23-31.88,34.7,19.63c3.22-1.39,1.33-2.37-.88-2.32Z"/><path class="cls-45" d="M273,289.27c2.35-.2,32.23-4.79,32.61-3.44l13.91,47.46c-.36,1.4-1.17,2.2-3.13,1.48l-12.72-47.35-31.82,4c-2.35-3.21-.63-3.33,1.15-2.13Z"/><path class="cls-46" d="M265.78,289c-1.64-1.84-21-26.5-22.35-26l-40.65-3c-.79,1.07-.76,2.13,1.28,3.16l39.64,2.17L265.05,291c4.22-.13,3-1.46.73-2.08Z"/><path class="cls-47" d="M255.55,201.74l28.65-14.28,25.89,21.31-5,37L272.54,264.3l-21.36-27.74,4.38-34.82Z"/><path class="cls-48" d="M277.08,260.5c0-.22,10.25-8.46,10.77-8.68,1-.42,15.55-5.19,15.6-5.12s-23.36,13.08-24.23,13.45a7.09,7.09,0,0,1-2.14.35Z"/><path class="cls-49" d="M271.94,259.83a5.26,5.26,0,0,1-1.7-.55c-.1-.13-1.45-2.5-3-5.28l-2.8-5.05,5.7.73c3.14.4,8.22,1.09,11.28,1.53l5.83.71-5.46,4.31-5.2,4.23-.76-.1c-.42-.05-1.13-.12-1.58-.15a20.58,20.58,0,0,1-2.32-.38Z"/><path class="cls-50" d="M269,259c-.35-.17-16.93-21.15-16.68-21.12,0,0,3.43,3.3,6.3,6l5.21,4.92,1.49,2.66c3.78,6.78,4.33,7.8,4.22,7.77A5.41,5.41,0,0,1,269,259Z"/><path class="cls-51" d="M257.67,242.38l-6.15-5.8.12-1.61c.2-2.86,4.06-32.69,4.22-32.61s3,2.22,6.54,4.85l6.4,4.78-2.44,18.1c-1.35,10-2.47,18.11-2.49,18.1s-2.81-2.61-6.2-5.81Z"/><path class="cls-52" d="M262.38,206.71c-3.6-2.69-6.53-4.9-6.52-4.91,2.12-1.11,27.48-13.66,27.52-13.62s-14.14,23.22-14.32,23.35-3.07-2.12-6.68-4.81Z"/><path class="cls-53" d="M269.53,211.67c.18-.42,14.49-23.61,14.57-23.6a1.63,1.63,0,0,1,.26.67c.1.37,2,6.42,4.15,13.45l4,12.79L281,213.42c-9.51-1.29-11.49-1.59-11.43-1.75Z"/><path class="cls-54" d="M266.66,230.33l2.46-18.21,23.19,3.13-4.92,36.42-23.2-3.13,2.47-18.21Z"/><path class="cls-55" d="M278.15,275.58c-.11.79-3,1.05-6.46.58s-6.18-1.48-6.08-2.27,3-1.05,6.47-.59S278.26,274.79,278.15,275.58Z"/><path class="cls-56" d="M278.07,275.28c.58.69.54,1.38-.08,1.75s-3,.89-6.48.43-5.63-1.42-6-2a1.19,1.19,0,0,1,.27-1.83"/><path class="cls-57" d="M270.75,277.22a20.68,20.68,0,0,1-3.06-.73,8.73,8.73,0,0,1-1.65-.73,1.55,1.55,0,0,1-.45-.4,1,1,0,0,1-.27-.58,1.16,1.16,0,0,1,.12-.59l.06-.12.07.13c.25.46,1.26,1,2.8,1.41a25.9,25.9,0,0,0,6.67.9,10.93,10.93,0,0,0,2.07-.18,2,2,0,0,0,1.05-.48l.08-.09,0,.1a.84.84,0,0,1,0,.62.78.78,0,0,1-.34.41c-.77.53-2.77.76-5.16.58-.32,0-1.77-.2-2.05-.25Z"/><path class="cls-58" d="M278.35,274.17c-.1.79-3,1.05-6.46.58s-6.18-1.49-6.07-2.28,3-1.05,6.46-.58S278.46,273.38,278.35,274.17Z"/><path class="cls-59" d="M278.27,273.87c.58.69.54,1.37-.07,1.74s-3,.9-6.48.43-5.64-1.41-6-2a1.2,1.2,0,0,1,.27-1.84"/><path class="cls-60" d="M271,275.81a22,22,0,0,1-3.06-.73,8.73,8.73,0,0,1-1.65-.73,1.88,1.88,0,0,1-.45-.4,1,1,0,0,1-.27-.58,1.14,1.14,0,0,1,.12-.59l.06-.12.07.13c.25.46,1.26,1,2.8,1.41a26.34,26.34,0,0,0,6.67.9,11.84,11.84,0,0,0,2.07-.18,2,2,0,0,0,1.05-.48l.08-.1,0,.11a.84.84,0,0,1,0,.62.85.85,0,0,1-.33.41c-.78.53-2.78.76-5.17.58-.32,0-1.77-.2-2.05-.25Z"/><path class="cls-61" d="M278.58,272.72c-.1.79-3,1-6.46.58s-6.18-1.49-6.07-2.28,3-1,6.46-.58S278.69,271.93,278.58,272.72Z"/><path class="cls-62" d="M278.51,272.42c.58.69.53,1.37-.08,1.74s-3,.9-6.48.43-5.64-1.41-6-2a1.18,1.18,0,0,1,.27-1.83"/><path class="cls-63" d="M271.18,274.36a20.68,20.68,0,0,1-3.06-.73,9,9,0,0,1-1.64-.72,2,2,0,0,1-.46-.4,1.08,1.08,0,0,1-.26-.59,1.05,1.05,0,0,1,.11-.59l.06-.12.07.13c.25.46,1.26,1,2.8,1.41a25.9,25.9,0,0,0,6.67.9,10.93,10.93,0,0,0,2.07-.18,1.93,1.93,0,0,0,1-.48l.08-.09,0,.1a.79.79,0,0,1,0,.62.76.76,0,0,1-.33.41c-.78.53-2.78.76-5.16.58-.32,0-1.78-.2-2.06-.25Z"/><path class="cls-64" d="M255.55,201.85l-4.37,34.69L264,248.65l23.52,3.18,17.6-5.92,5-37-17.4,6.25L269.12,212l-13.57-10.14Z"/><path class="cls-65" d="M255.51,201.73l28.68-14.28,26,21.4"/><path class="cls-66" d="M292.75,215.16l-8.59-27.73"/><path class="cls-67" d="M269.06,212l15-24.45"/><path class="cls-68" d="M251.16,236.52l21.38,27.64,32.65-18.27"/><path class="cls-69" d="M287.58,251.82l-15,12.16-8.52-15.32"/><path class="cls-70" d="M269,211.83l-5,36.77"/><path class="cls-71" d="M292.55,215l-5,36.78"/><path class="cls-72" d="M278.73,271.27c-.1.79-3,1.06-6.46.59s-6.18-1.49-6.07-2.28,3-1.05,6.46-.58S278.84,270.48,278.73,271.27Z"/><path class="cls-73" d="M278.65,271c.58.7.54,1.38-.07,1.75s-3,.9-6.48.43-5.64-1.41-6-2a1.19,1.19,0,0,1,.27-1.83"/><path class="cls-74" d="M271.33,272.92a21.89,21.89,0,0,1-3.06-.74,7.81,7.81,0,0,1-1.64-.72,2,2,0,0,1-.46-.4,1,1,0,0,1-.26-.58,1.07,1.07,0,0,1,.11-.6l.06-.12.07.13c.25.47,1.26,1,2.8,1.41a25.9,25.9,0,0,0,6.67.9,10.16,10.16,0,0,0,2.07-.18,1.94,1.94,0,0,0,1.05-.47l.08-.1,0,.1a.79.79,0,0,1,0,.62.73.73,0,0,1-.33.41c-.78.54-2.78.76-5.16.59-.32,0-1.78-.2-2.06-.25Z"/><path class="cls-75" d="M278.94,269.86c-.11.79-3,1.05-6.47.58s-6.18-1.48-6.07-2.27,3-1.05,6.46-.59S279,269.07,278.94,269.86Z"/><path class="cls-76" d="M278.86,269.56c.58.69.53,1.38-.08,1.75s-3,.89-6.48.43-5.64-1.42-6-2a1.18,1.18,0,0,1,.27-1.83"/><path class="cls-77" d="M271.53,271.51a21.89,21.89,0,0,1-3.06-.74,8.37,8.37,0,0,1-1.64-.72,2,2,0,0,1-.46-.4,1.09,1.09,0,0,1-.26-.58,1.07,1.07,0,0,1,.11-.6l.06-.12.07.13c.25.47,1.26,1,2.8,1.41a25.9,25.9,0,0,0,6.67.9,10.16,10.16,0,0,0,2.07-.18,1.94,1.94,0,0,0,1.05-.47l.08-.1,0,.1a.79.79,0,0,1,0,.62.73.73,0,0,1-.33.41c-.78.54-2.78.76-5.16.59l-2.06-.25Z"/><path class="cls-78" d="M279.17,268.41c-.11.79-3,1-6.46.59s-6.19-1.49-6.08-2.28,3-1.05,6.46-.58S279.27,267.62,279.17,268.41Z"/><path class="cls-79" d="M279.09,268.11c.58.7.53,1.38-.08,1.75s-3,.9-6.48.43-5.64-1.42-6-2a1.18,1.18,0,0,1,.27-1.83"/><path class="cls-80" d="M271.76,270.06a21.89,21.89,0,0,1-3.06-.74,8.05,8.05,0,0,1-1.64-.72,2,2,0,0,1-.46-.4,1.09,1.09,0,0,1-.26-.58,1.3,1.3,0,0,1,.11-.6l.06-.12.07.13c.26.47,1.26,1,2.8,1.41a26.43,26.43,0,0,0,6.68.91,11,11,0,0,0,2.07-.19,1.93,1.93,0,0,0,1-.47l.08-.1,0,.1a.84.84,0,0,1,0,.62.79.79,0,0,1-.34.41c-.78.54-2.78.76-5.16.59-.32,0-1.78-.2-2.06-.25Z"/><path class="cls-81" d="M279.31,267c-.1.79-3,1-6.46.58s-6.18-1.49-6.07-2.28,3-1,6.46-.58S279.42,266.18,279.31,267Z"/><path class="cls-82" d="M279.23,266.67c.58.69.54,1.37-.07,1.74s-3,.9-6.48.43-5.64-1.41-6-2a1.19,1.19,0,0,1,.27-1.84"/><path class="cls-83" d="M271.91,268.61a22,22,0,0,1-3.06-.73,8.61,8.61,0,0,1-1.64-.73,1.75,1.75,0,0,1-.46-.4,1.09,1.09,0,0,1-.26-.58,1.24,1.24,0,0,1,.11-.59l.06-.12.07.13c.26.46,1.26,1,2.8,1.41a26.42,26.42,0,0,0,6.68.9,11,11,0,0,0,2.07-.19,1.93,1.93,0,0,0,1-.47l.08-.1,0,.11a.84.84,0,0,1,0,.62.88.88,0,0,1-.34.41c-.78.53-2.78.76-5.16.58-.32,0-1.78-.2-2.06-.25Z"/><path class="cls-84" d="M279.52,265.56c-.11.79-3,1.05-6.46.58s-6.19-1.49-6.08-2.28,3-1.05,6.46-.58S279.62,264.77,279.52,265.56Z"/><path class="cls-85" d="M279.44,265.26c.58.69.53,1.37-.08,1.74s-3,.9-6.48.43-5.64-1.41-6-2a1.2,1.2,0,0,1,.27-1.84"/><path class="cls-86" d="M272.12,267.2a20.42,20.42,0,0,1-3.07-.74,8.05,8.05,0,0,1-1.64-.72,1.75,1.75,0,0,1-.46-.4,1.09,1.09,0,0,1-.26-.58,1.24,1.24,0,0,1,.11-.59l.06-.12.07.12c.26.47,1.26,1,2.8,1.41a26,26,0,0,0,6.68.91,10.89,10.89,0,0,0,2.07-.19,1.93,1.93,0,0,0,1-.47l.08-.1,0,.11a.84.84,0,0,1,0,.62.88.88,0,0,1-.34.41c-.78.53-2.78.76-5.16.58-.32,0-1.78-.2-2.05-.25Z"/><path class="cls-87" d="M279.75,264.11c-.11.79-3,1.05-6.46.58s-6.18-1.49-6.08-2.28,3-1.05,6.46-.58S279.86,263.32,279.75,264.11Z"/><path class="cls-88" d="M279.67,263.81c.58.69.54,1.37-.08,1.74s-3,.9-6.48.43-5.63-1.41-6-2a1.2,1.2,0,0,1,.27-1.84"/><path class="cls-89" d="M272.35,265.75a21.85,21.85,0,0,1-3.07-.73,8.61,8.61,0,0,1-1.64-.73,1.75,1.75,0,0,1-.46-.4,1.09,1.09,0,0,1-.26-.58,1.24,1.24,0,0,1,.11-.59l.06-.12.07.13c.26.46,1.26,1,2.8,1.41a26.42,26.42,0,0,0,6.68.9,10.89,10.89,0,0,0,2.07-.19,1.93,1.93,0,0,0,1-.47l.09-.1,0,.11a.84.84,0,0,1,0,.62.88.88,0,0,1-.34.41c-.78.53-2.78.76-5.16.58-.32,0-1.77-.2-2-.25Z"/><path class="cls-90" d="M280,262.67c-.1.79-3,1.05-6.46.58s-6.18-1.48-6.07-2.27,3-1.06,6.46-.59S280.06,261.88,280,262.67Z"/><path class="cls-91" d="M279.87,262.37c.58.69.54,1.38-.07,1.74s-3,.9-6.48.44-5.64-1.42-6-2a1.19,1.19,0,0,1,.27-1.83"/><path class="cls-92" d="M272.55,264.31a22,22,0,0,1-3.06-.73,8.73,8.73,0,0,1-1.65-.73,1.88,1.88,0,0,1-.45-.4,1,1,0,0,1-.27-.58,1.14,1.14,0,0,1,.12-.59l.06-.12.07.13c.25.46,1.26,1,2.8,1.41a26.34,26.34,0,0,0,6.67.9,11.84,11.84,0,0,0,2.07-.18,2,2,0,0,0,1-.48l.08-.1,0,.11a.84.84,0,0,1,0,.62.85.85,0,0,1-.33.41c-.78.53-2.78.76-5.17.58-.32,0-1.77-.2-2.05-.25Z"/><path class="cls-93" d="M280.15,261.26c-.1.79-3,1.05-6.46.58s-6.18-1.49-6.07-2.28,2.61.47,6.07.94,6.57,0,6.46.76Z"/><path class="cls-94" d="M280.08,261c.58.69.53,1.37-.08,1.74s-3,.9-6.48.43-5.64-1.41-6-2a1.19,1.19,0,0,1,.27-1.84"/><path class="cls-95" d="M272.75,262.9a22,22,0,0,1-3.06-.73,8.33,8.33,0,0,1-1.64-.73,1.75,1.75,0,0,1-.46-.4,1.09,1.09,0,0,1-.26-.58,1,1,0,0,1,.11-.59l.06-.12.07.13c.25.46,1.26,1,2.8,1.41a26.4,26.4,0,0,0,6.67.9,11,11,0,0,0,2.08-.19,1.93,1.93,0,0,0,1-.47l.08-.1,0,.11a.84.84,0,0,1,0,.62.88.88,0,0,1-.34.41c-.78.53-2.78.76-5.16.58-.32,0-1.78-.2-2.06-.25Z"/><path class="cls-96" d="M280.41,259.66c.53.68.43,1.22-.18,1.59s-3,.9-6.48.43-5.64-1.41-6-2a1,1,0,0,1,.12-1.69"/><path class="cls-97" d="M273,261.45a20.53,20.53,0,0,1-3.07-.73,8.61,8.61,0,0,1-1.64-.73,1.75,1.75,0,0,1-.46-.4,1.09,1.09,0,0,1-.26-.58,1.26,1.26,0,0,1,.11-.59l.06-.12.07.13c.26.46,1.26,1,2.8,1.41a26.42,26.42,0,0,0,6.68.9,11.93,11.93,0,0,0,2.07-.18,1.93,1.93,0,0,0,1-.48l.08-.1,0,.11a.84.84,0,0,1,0,.62.83.83,0,0,1-.34.41c-.78.53-2.78.76-5.16.58-.32,0-1.78-.2-2.05-.25Z"/><path class="cls-98" d="M280.43,259.74c-.12.8-3,1.12-6.5.65s-6.19-1.49-6.08-2.28"/><path class="cls-99" d="M267.68,289.49c-1.69-1.25-21.36-18.65-22.89-17.87L213.89,317c-1,1.17-1.06,2.12,1.15,2.53l30.83-45.1,20.79,17.09c4.8-1.18,3.54-2.08,1-2.07Z"/><path class="cls-100" d="M276.24,288.9c2.44-.69,32.84-11.32,33.65-10.23L339,317.25c0,1.31-.58,2.18-2.88,2L308.31,280.5,275.66,291c-3.47-2.3-1.68-2.79.58-2.13Z"/><path class="cls-101" d="M271.44,290.41c1.87,1.45,27.26,19.67,26.57,20.1l-.95,20.12a3.88,3.88,0,0,1-3.38-1.76l1.75-19.36L269,290c.59-1.93,1.95-.87,2.4.43Z"/><ellipse class="cls-102" cx="267.02" cy="217.4" rx="5.59" ry="6.12" transform="translate(15.8 452.89) rotate(-82.3)"/><ellipse class="cls-103" cx="266.65" cy="217.52" rx="3.51" ry="3.85" transform="translate(15.37 452.62) rotate(-82.3)"/><ellipse class="cls-102" cx="289.22" cy="220.41" rx="5.59" ry="6.12" transform="translate(32.06 477.49) rotate(-82.3)"/><ellipse class="cls-103" cx="288.85" cy="220.52" rx="3.51" ry="3.85" transform="translate(31.63 477.23) rotate(-82.3)"/><path class="cls-104" d="M89,28.91c25.8-11.56,32.21-9,20,15.56-2.36,4.72,42.2,7.4,9.63,20.08-2.33.9-5,8.79-.52,10.77,27.86,12.27,11.4,21.81-.88,20.51-4.09-.43-9.91,3.69-7.39,7.86,21.72,36-12.93,10.86-15.8,13.75-2.06,2.07-3.12,6.87-2.88,9.41,3.7,40.62-20.53-7.36-22.56-4.67-24.51,32.35-18.62-1.6-21.35,1.86-13.52,17.13-8.38-5.92-12.42-3.32C-1.48,144.08,32,107.75,26,108.3c-44.55,4-3.22-20-9.47-20.74-33.73-3.88-1.94-12.21-1.36-17.73.53-5-28.73-19,7.86-23,4-.44,5-4.41,2.89-7.37C1.8,5.72,36.62,31.55,38.11,29.62c3.19-4.14,4.52-1.06,4.18-6-3.1-45.83,13.3-1.5,18.11-2.83,2.78-.77,5.18,1.3,6.58-2.07C85.16-24.87,86.44,29.48,89,28.91Z"/><path class="cls-105" d="M99.3,98.63c-3.48,11-15.93,16.77-27.82,13S52.79,95.91,56.27,85,72.2,68.18,84.09,72s18.7,15.72,15.21,26.67Z"/><path class="cls-106" d="M92,108.15c-1.49,4.68-10.54,6-20.22,2.9S55.48,101.69,57,97s10.54-6,20.22-2.9S93.51,103.47,92,108.15Z"/><path class="cls-107" d="M82.62,53.66c-1.17,3.71-5.65,5.6-10,4.22s-6.91-5.5-5.73-9.21,5.65-5.6,10-4.22S83.8,50,82.62,53.66Z"/><path class="cls-108" d="M74.88,54.54c-.53,1.65-2.65,2.46-4.73,1.79s-3.36-2.54-2.84-4.19,2.65-2.46,4.74-1.79S75.4,52.89,74.88,54.54Z"/><path class="cls-109" d="M74.1,54.15a2.5,2.5,0,1,1-1.7-2.86A2.36,2.36,0,0,1,74.1,54.15Z"/><path class="cls-107" d="M106.43,61.23c-1.18,3.71-5.65,5.6-10,4.22s-6.9-5.51-5.73-9.22,5.66-5.6,10-4.22S107.61,57.52,106.43,61.23Z"/><path class="cls-108" d="M98.69,62.11C98.16,63.76,96,64.56,94,63.9s-3.35-2.54-2.83-4.2,2.65-2.45,4.74-1.79S99.21,60.45,98.69,62.11Z"/><path class="cls-109" d="M97.91,61.71a2.5,2.5,0,1,1-1.71-2.85A2.37,2.37,0,0,1,97.91,61.71Z"/><path class="cls-110" d="M36.1,215.34c-3.26.72-4.32,2.93-4.82,5.51"/><path class="cls-110" d="M40.61,219.48c-3.31.43-4.55,2.54-5.28,5.06"/><path class="cls-110" d="M51.88,244.47c-3.28.61-4.41,2.78-5,5.34"/><path class="cls-111" d="M21.76,221.59c22.4-8.62,15.31,32.48,43.61,54.68,30.1,23.6,75.6,15.55,71.31,39.09s-67.68,12.19-95-13.05C15.72,278.28-.64,230.22,21.76,221.59Z"/><path class="cls-112" d="M15.75,243.6c12.42-1.31,19.91,29,40.7,45.53,22.1,17.63,55.25,21.86,56.24,34.17s-48.84-2.77-69.48-20.87C23.56,285.19,3.33,244.9,15.75,243.6Z"/><path class="cls-113" d="M22.34,220s1.63-30.64,24-24.28,18,55.93,61,76.23c13.12,5.71,35.92,1.66,35.92,1.66"/><path class="cls-113" d="M22.4,220.64s-4.92-30.28,18.3-28.83,30.92,60.41,77.24,71.11c14,2.78,29.38-2.31,29.38-2.31"/><path class="cls-113" d="M23.9,219.56S20.63,184.42,43.76,187s25.73,69,71.48,81.91c13.88,3.46,31.52-3.42,31.52-3.42"/><path class="cls-114" d="M29.77,239.43c3.11,5.22,2.59,11.27-1.16,13.51s-9.33-.18-12.44-5.41S13.58,236.26,17.33,234,26.66,234.2,29.77,239.43Z"/><path class="cls-114" d="M42.94,229.07c3.21,5.38,2.7,11.6-1.14,13.89s-9.55-.23-12.76-5.61-2.69-11.6,1.14-13.89S39.73,223.69,42.94,229.07Z"/><path class="cls-115" d="M38.18,224.57a6.29,6.29,0,1,1-9,.75A6.42,6.42,0,0,1,38.18,224.57Z"/><path class="cls-115" d="M25.36,235.66a6.29,6.29,0,1,1-9,.75A6.42,6.42,0,0,1,25.36,235.66Z"/><path class="cls-116" d="M27,226.09c-2,2-4.13-.36-2.66-2.67.78-1.77,9.78-12,19.92,2.18,0,1.63-8.51-11.93-17.26.49Z"/><path class="cls-116" d="M22.17,232c2.64-1,1.4-3.9-1.32-3.53-1.93,0-15,3.9-6.3,19,1.49.68-7.31-12.69,7.62-15.49Z"/><path class="cls-117" d="M4,252.21c3.15,1.1,5.2-.22,7-2.15"/><path class="cls-117" d="M4.63,256.78c3,1.42,5.21.31,7.18-1.43"/><path class="cls-117" d="M5.85,261c2.81,1.79,5.12,1,7.3-.49"/><path class="cls-117" d="M8.86,266.32c3.15,1.1,5.2-.22,7-2.15"/><path class="cls-117" d="M9.6,271.37c3.18,1,5.19-.41,6.91-2.4"/><path class="cls-117" d="M12.57,276.19c3.27.7,5.14-.88,6.67-3"/><path class="cls-117" d="M14.3,280.57c3.15,1.1,5.21-.23,7-2.16"/><path class="cls-117" d="M17.56,285.57c3.28.62,5.11-1,6.58-3.18"/><path class="cls-117" d="M20.84,290.8c3.33.26,5-1.55,6.21-3.88"/><path class="cls-117" d="M24.45,295.7c3.33-.12,4.76-2.11,5.72-4.55"/><path class="cls-117" d="M31.78,304.82c3.32-.3,4.64-2.36,5.47-4.86"/><path class="cls-117" d="M27.75,300.7c3.33.06,4.87-1.85,6-4.24"/><path class="cls-117" d="M35.77,308.75c3.33-.12,4.76-2.11,5.72-4.56"/><path class="cls-117" d="M45.11,316.36c3.26-.72,4.31-2.93,4.82-5.51"/><path class="cls-117" d="M40.11,312.24c3.34.06,4.88-1.85,6-4.24"/><path class="cls-117" d="M49.25,319c3.33-.12,4.76-2.11,5.72-4.56"/><path class="cls-117" d="M59.51,324.51c3.26-.72,4.31-2.93,4.82-5.51"/><path class="cls-117" d="M54.39,322c3.31-.42,4.55-2.53,5.29-5.05"/><path class="cls-117" d="M70.29,328.51c3.06-1.34,3.65-3.72,3.64-6.35"/><path class="cls-117" d="M65.22,326.53c3.1-1.21,3.8-3.56,3.9-6.19"/><path class="cls-117" d="M75.12,330.52c3.15-1.08,3.95-3.4,4.15-6"/><path class="cls-117" d="M85.68,333.37c3.1-1.25,3.78-3.6,3.85-6.23"/><path class="cls-117" d="M80.38,332c3-1.46,3.51-3.85,3.4-6.48"/><path class="cls-117" d="M91.06,334.66c3-1.58,3.36-4,3.15-6.61"/><path class="cls-117" d="M100.58,335.76c3-1.34,3.65-3.72,3.64-6.35"/><path class="cls-117" d="M95.8,335.31c3.11-1.22,3.8-3.56,3.9-6.19"/><path class="cls-117" d="M107.16,336c2.63-2.06,2.62-4.5,2-7.05"/><path class="cls-117" d="M117.85,335.84c2.36-2.36,2.06-4.79,1.09-7.24"/><path class="cls-117" d="M113,335.9c2.11-2.58,1.57-5,.36-7.31"/><path class="cls-117" d="M123.67,334.77c2.17-2.53,1.68-4.93.53-7.29"/><path class="cls-117" d="M129.65,333.25c1.48-3,.42-5.19-1.28-7.2"/><path class="cls-117" d="M140.58,326.26c-.43-3.31-2.54-4.55-5.07-5.28"/><path class="cls-117" d="M135.43,331.15c.73-3.26-.83-5.14-3-6.69"/><path class="cls-117" d="M143.94,320.78c-1.44-3-3.83-3.53-6.46-3.44"/><path class="cls-117" d="M144.94,309c-2.43-2.28-4.85-1.9-7.26-.86"/><path class="cls-117" d="M145.59,315.67c-1.77-2.83-4.2-3.09-6.8-2.7"/><path class="cls-117" d="M142.16,302c-3.19-1-5.19.43-6.9,2.42"/><path class="cls-117" d="M138,297.23c-3.34-.06-4.88,1.85-6,4.24"/><path class="cls-117" d="M126.08,291.12c-2.91,1.63-3.27,4.06-3,6.67"/><path class="cls-117" d="M132.49,293.36c-3.23.86-4.18,3.11-4.57,5.71"/><path class="cls-117" d="M115,287.36c-2.62,2.06-2.61,4.51-1.94,7.05"/><path class="cls-117" d="M120.53,288.7c-2.77,1.86-2.94,4.31-2.46,6.89"/><path class="cls-117" d="M108.69,286c-2.4,2.32-2.13,4.75-1.21,7.21"/><path class="cls-117" d="M83.5,277.14c-3.25.71-4.31,2.92-4.81,5.5"/><path class="cls-117" d="M79,274.7c-3.32.42-4.56,2.53-5.29,5.05"/><path class="cls-117" d="M93.64,281.24C90.58,282.58,90,285,90,287.58"/><path class="cls-117" d="M87.9,279.18c-3.11,1.21-3.81,3.56-3.91,6.18"/><path class="cls-117" d="M98.31,282.88c-2.74,1.91-2.87,4.35-2.35,6.93"/><path class="cls-117" d="M103.2,284.12c-2.58,2.13-2.5,4.57-1.77,7.1"/><path class="cls-117" d="M60.24,259.7c-3.25.71-4.31,2.92-4.81,5.5"/><path class="cls-117" d="M56.8,255c-3.31.42-4.55,2.53-5.29,5.06"/><path class="cls-117" d="M69.12,269c-3.3.52-4.48,2.66-5.14,5.2"/><path class="cls-117" d="M64.52,264.55c-3.29.6-4.41,2.77-5,5.33"/><path class="cls-117" d="M73.26,272c-3.2.94-4.1,3.21-4.42,5.82"/><path class="cls-117" d="M54.45,249.86c-3.3.52-4.48,2.66-5.14,5.2"/><path class="cls-117" d="M5,226.44c.81,3.24,3,4.23,5.64,4.65"/><path class="cls-117" d="M3.8,233.14c2,2.7,4.4,2.78,7,2.21"/><path class="cls-117" d="M2.72,239.94c2.82,1.8,5.12,1,7.3-.49"/><path class="cls-117" d="M2.8,247c3.15,1.1,5.2-.23,7-2.15"/><path class="cls-117" d="M8.19,221.87c.81,3.24,3.05,4.23,5.65,4.66"/><path class="cls-117" d="M13,216.25c-.57,3.29,1.08,5.1,3.28,6.54"/><path class="cls-117" d="M18,213.14c-1.51,3-.47,5.19,1.2,7.22"/><path class="cls-117" d="M30.41,212.47c-2.84,1.75-3.1,4.19-2.73,6.79"/><path class="cls-117" d="M26,211.65c-2.85,1.76-3.11,4.19-2.74,6.79"/><path class="cls-118" d="M215.34,220.18l-5.62-4.38a1.53,1.53,0,0,0-2.1.31,1.51,1.51,0,0,0,.31,2.08l5.62,4.38a1.49,1.49,0,0,0,1.79-2.39Z"/><path class="cls-118" d="M220.3,214.09l-5.2-4.33a1.49,1.49,0,1,0-1.79,2.39l5.21,4.33a1.49,1.49,0,1,0,1.78-2.39Z"/><path class="cls-118" d="M232.29,206.32l-12.18-5.68A1.49,1.49,0,1,0,219,203.4l12.18,5.68a1.53,1.53,0,0,0,2-.83A1.5,1.5,0,0,0,232.29,206.32Z"/><path class="cls-118" d="M228.82,184.82a1.73,1.73,0,0,0-1.11-.27l-5.08.25a1.5,1.5,0,0,0-1.26,1.69,1.46,1.46,0,0,0,.59,1,1.67,1.67,0,0,0,1.11.28l5.08-.25a1.5,1.5,0,0,0,1.26-1.69A1.49,1.49,0,0,0,228.82,184.82Z"/><path class="cls-118" d="M227.05,172.89l-5.92,1.66a1.65,1.65,0,0,0-1,.59,1.5,1.5,0,0,0-.28,1.1,1.51,1.51,0,0,0,1.71,1.25l5.92-1.66a1.62,1.62,0,0,0,1-.59,1.5,1.5,0,0,0,.28-1.1A1.52,1.52,0,0,0,227.05,172.89Z"/><path class="cls-118" d="M226.84,159.15a1.53,1.53,0,0,0-2-.75l-9.09,4.33a1.5,1.5,0,0,0-.76,2,1.52,1.52,0,0,0,2,.75l9.1-4.33A1.5,1.5,0,0,0,226.84,159.15Z"/><path class="cls-118" d="M211,148.17a1.53,1.53,0,0,0-2-.76L205.16,149a1.49,1.49,0,0,0-.76,2,1.53,1.53,0,0,0,2,.76l3.85-1.61A1.49,1.49,0,0,0,211,148.17Z"/><path class="cls-118" d="M204.24,143.78a1.49,1.49,0,0,0-1.12-.28l-.38.11a1.56,1.56,0,0,0-.6.48L200,146.47a1,1,0,0,0-.24.51,1.18,1.18,0,0,0,0,.59,1.46,1.46,0,0,0,.59,1,1.52,1.52,0,0,0,1.11.28l.39-.11a1.53,1.53,0,0,0,.59-.48l2.19-2.38a1.07,1.07,0,0,0,.23-.52,1,1,0,0,0,0-.58A1.45,1.45,0,0,0,204.24,143.78Z"/><path class="cls-118" d="M194.19,128.48l-5.38,14.79c-.66,1.8,2.12,2.9,2.77,1.1q2.7-7.4,5.39-14.78C197.62,127.79,194.85,126.68,194.19,128.48Z"/><path class="cls-118" d="M182.72,131.4a1.52,1.52,0,0,0-1.67,1.3l-.57,4.61a1.43,1.43,0,0,0-.5.09l-.13,0-.07,0a1.3,1.3,0,0,0-.41.31,1.36,1.36,0,0,0-.38.82,1.46,1.46,0,0,0,.51,1.29,1.29,1.29,0,0,0,.86.37l1.24.22a1.52,1.52,0,0,0,1.67-1.3l.75-6.15A1.51,1.51,0,0,0,182.72,131.4Z"/><path class="cls-118" d="M174.85,130.05a1.52,1.52,0,0,0-1.67,1.29c-.13,2.4-.27,4.79-.4,7.18a1.5,1.5,0,0,0,3,.36c.14-2.4.27-4.79.41-7.18A1.51,1.51,0,0,0,174.85,130.05Z"/><path class="cls-118" d="M161.37,123.36c-.34-1.88-3.31-1.44-3,.44q1.58,8.65,3.17,17.31c.34,1.87,3.31,1.44,3-.45Q163,132,161.37,123.36Z"/><path class="cls-118" d="M151.74,142.19l-3-6.15a1.5,1.5,0,0,0-2.74,1.21c1,2.05,2,4.1,3,6.14a1.5,1.5,0,0,0,2.74-1.2Z"/><path class="cls-118" d="M143.35,145.1q-1.51-1.54-3-3.1a1.65,1.65,0,0,0-1-.54,1.52,1.52,0,0,0-1.12.32,1.48,1.48,0,0,0-.55,1,1.45,1.45,0,0,0,.32,1.11l3,3.1a1.65,1.65,0,0,0,1,.54,1.49,1.49,0,0,0,1.35-2.41Z"/><path class="cls-118" d="M134.73,150.65,130,146.29a1.48,1.48,0,0,0-1.11-.28,1.5,1.5,0,0,0-1.27,1.69,1.85,1.85,0,0,0,.59,1L133,153a1.51,1.51,0,0,0,1.11.28,1.55,1.55,0,0,0,1-.59,1.45,1.45,0,0,0,.28-1.1A1.7,1.7,0,0,0,134.73,150.65Z"/><path class="cls-118" d="M129,159.42l-16.16-10.79c-1.17-.78-2.55.9-1.38,1.67l16.16,10.8C128.75,161.88,130.13,160.2,129,159.42Z"/><path class="cls-118" d="M123.46,166.31l-6.94-2a1.53,1.53,0,0,0-2,.83,1.49,1.49,0,0,0,.83,1.93l6.95,2a1.52,1.52,0,0,0,1.94-.83A1.49,1.49,0,0,0,123.46,166.31Z"/><path class="cls-118" d="M117.94,175.55l-7.5,1.12a1.49,1.49,0,1,0,.44,2.94l7.5-1.12a1.49,1.49,0,0,0,1.26-1.69A1.52,1.52,0,0,0,117.94,175.55Z"/><path class="cls-118" d="M119.09,190.1l-16,2.39a1.49,1.49,0,0,0,.44,2.94l16-2.39A1.49,1.49,0,0,0,119.09,190.1Z"/><path class="cls-118" d="M123,196.47a1.54,1.54,0,0,0-2-.76l-7.27,2.64a1.5,1.5,0,0,0-.77,2,1.55,1.55,0,0,0,2,.76l7.27-2.64A1.48,1.48,0,0,0,123,196.47Z"/><path class="cls-118" d="M124.18,204.15a1.52,1.52,0,0,0-2-.76L117,206.2a1.48,1.48,0,1,0,1.21,2.71l5.21-2.8A1.52,1.52,0,0,0,124.18,204.15Z"/><path class="cls-118" d="M125.68,211l-12,8.92c-1.55,1.15.33,3.46,1.87,2.31l12-8.92C129.09,212.14,127.22,209.83,125.68,211Z"/><path class="cls-118" d="M132.57,217.57a1.53,1.53,0,0,0-2.1-.22l-5.35,4.25a1.5,1.5,0,0,0-.33,1.93,1.53,1.53,0,0,0,1.87.59l1.42-.44a1.44,1.44,0,0,0,.78-.81,1.46,1.46,0,0,0,.11-.52l3.37-2.69A1.5,1.5,0,0,0,132.57,217.57Z"/><path class="cls-118" d="M135.24,222.64a1.52,1.52,0,0,0-1.11-.28,1.5,1.5,0,0,0-1,.59c-.69,1.12-1.37,2.24-2.06,3.35a1.62,1.62,0,0,0-.28,1.11,1.53,1.53,0,0,0,.59,1,1.47,1.47,0,0,0,1.11.27,1.49,1.49,0,0,0,1-.58l2.05-3.35a1.58,1.58,0,0,0,.28-1.11A1.49,1.49,0,0,0,135.24,222.64Z"/><path class="cls-118" d="M144.44,227.7a1.52,1.52,0,0,0-2.1-.22,14.52,14.52,0,0,0-5.44,9.77,1.5,1.5,0,0,0,3,.36c0-.4.11-.8.19-1.2,0-.12.05-.24.08-.36V236c0-.19.1-.38.16-.57a14.56,14.56,0,0,1,1-2.26l0-.06.16-.26c.11-.17.22-.34.34-.51.23-.33.47-.65.73-1l.41-.45,0-.06,0,0,.21-.21a12.67,12.67,0,0,1,1-.84A1.49,1.49,0,0,0,144.44,227.7Z"/><path class="cls-118" d="M155,229.66a1.55,1.55,0,0,0-2.11-.23,6.06,6.06,0,0,0-2.17,7.08,1.52,1.52,0,0,0,2,.75,1.51,1.51,0,0,0,.76-2l0-.09a3.09,3.09,0,0,1,0-1.6,2.88,2.88,0,0,1,.2-.56c.05-.13.31-.54,0-.11a6.68,6.68,0,0,1,.44-.63l.07-.08a4.51,4.51,0,0,1,.6-.48,1.5,1.5,0,0,0,.55-1A1.47,1.47,0,0,0,155,229.66Z"/><path class="cls-118" d="M160.05,235.72a5.57,5.57,0,0,1,.1-.82,3.81,3.81,0,0,1,.27-.66,4.3,4.3,0,0,1,.47-.65,1.51,1.51,0,0,0,.28-1.11,1.49,1.49,0,0,0-1.7-1.24,1.71,1.71,0,0,0-1,.58,6,6,0,0,0-.94,6.2,1.5,1.5,0,0,0,2.74-1.21,2.83,2.83,0,0,1-.11-.31A4.21,4.21,0,0,1,160.05,235.72Z"/><path class="cls-118" d="M168.2,230.48a1.51,1.51,0,0,0-1.67,1.3q-.17,5.85-.32,11.71a1.53,1.53,0,0,0,1.3,1.66,1.51,1.51,0,0,0,1.67-1.3q.16-5.86.32-11.72A1.51,1.51,0,0,0,168.2,230.48Z"/><path class="cls-118" d="M177.68,227.53a1.52,1.52,0,0,0-1.26,1.69l.84,6.47a1.5,1.5,0,0,0,3-.44l-.84-6.47A1.51,1.51,0,0,0,177.68,227.53Z"/><path class="cls-118" d="M191.15,230.54l-4.75-4.37a1.51,1.51,0,0,0-1.11-.28,1.55,1.55,0,0,0-1,.59,1.46,1.46,0,0,0-.28,1.1,1.67,1.67,0,0,0,.59,1l4.74,4.37a1.53,1.53,0,0,0,1.11.27,1.51,1.51,0,0,0,1-.59,1.54,1.54,0,0,0,.28-1.1A1.73,1.73,0,0,0,191.15,230.54Z"/><path class="cls-118" d="M203.11,232.44,197,221.33a1.55,1.55,0,0,0-2-.76,1.5,1.5,0,0,0-.77,2l6.15,11.11a1.55,1.55,0,0,0,2,.76A1.5,1.5,0,0,0,203.11,232.44Z"/><path class="cls-119" d="M160.15,126.55c5.15,0,5.16-8,0-8s-5.15,8,0,8Z"/><path class="cls-119" d="M195.3,132.47c5.15,0,5.16-8,0-8s-5.15,8,0,8Z"/><path class="cls-119" d="M226.36,162.34c5.14,0,5.15-8,0-8s-5.16,8,0,8Z"/><path class="cls-119" d="M227.26,208.43l.07.49a2.9,2.9,0,0,0,.72,1.36,3.6,3.6,0,0,0,2.61,1.51,3.07,3.07,0,0,0,1.59-.07l1-.41a3.92,3.92,0,0,0,1.43-1.43l.41-1a4,4,0,0,0,0-2.12l-.08-.5a4.39,4.39,0,0,0-1.84-2.39,2.94,2.94,0,0,0-1.48-.47,3,3,0,0,0-1.6.07l-1,.4a4,4,0,0,0-1.44,1.44l-.4,1a4.05,4.05,0,0,0,0,2.13Z"/><path class="cls-119" d="M201.92,238.07l.5-.08a3,3,0,0,0,1.36-.71,3.11,3.11,0,0,0,1-1.13,2.94,2.94,0,0,0,.47-1.48,3,3,0,0,0-.07-1.6l-.4-.95a4.05,4.05,0,0,0-1.44-1.44l-1-.4a4.05,4.05,0,0,0-2.13,0l-.5.07a3,3,0,0,0-1.36.72,2.92,2.92,0,0,0-1,1.12,4.39,4.39,0,0,0-.4,3.08l.4,1a4,4,0,0,0,1.43,1.43l1,.41a4.05,4.05,0,0,0,2.13,0Z"/><path class="cls-119" d="M202.78,237.41c5.15,0,5.16-8,0-8s-5.16,8,0,8Z"/><path class="cls-119" d="M162.57,244.47l.07.5a3,3,0,0,0,.72,1.36,3,3,0,0,0,1.12,1,4.53,4.53,0,0,0,3.08.4l1-.4a4,4,0,0,0,1.43-1.44l.41-.95a4.05,4.05,0,0,0,0-2.13l-.08-.5a3,3,0,0,0-.71-1.36,3.11,3.11,0,0,0-1.13-1,2.94,2.94,0,0,0-1.48-.47,3,3,0,0,0-1.6.07l-1,.4a4.14,4.14,0,0,0-1.44,1.44l-.4,1a4.05,4.05,0,0,0,0,2.13Z"/><path class="cls-119" d="M168.5,247.6c5.15,0,5.16-8,0-8s-5.16,8,0,8Z"/><path class="cls-119" d="M137.84,232.82a4.92,4.92,0,0,0-2.41,0,4.47,4.47,0,0,0-1.25.54,4.92,4.92,0,0,0-1.63,1.64,3.43,3.43,0,0,0-.52,1.25,3,3,0,0,0-.07,1.6,2.91,2.91,0,0,0,.47,1.48,4.39,4.39,0,0,0,2.39,1.84l1.06.15a4.05,4.05,0,0,0,2-.55l.81-.63a3.93,3.93,0,0,0,1-1.76,1.21,1.21,0,0,1,0-.18l-.4,1,.09-.16-.62.8.13-.13-.81.63a.82.82,0,0,1,.2-.12l-.95.4.18-.05-1.07.14h.19l-1.06-.15h0a3,3,0,0,0,1.6.07,3,3,0,0,0,1.49-.47,3.08,3.08,0,0,0,1.12-1,3,3,0,0,0,.71-1.36l.15-1.07a4,4,0,0,0-.55-2l-.62-.81a4,4,0,0,0-1.77-1Z"/><path class="cls-119" d="M135,240l.65.91a3,3,0,0,0,1,1.12,3,3,0,0,0,1.36.72,3.11,3.11,0,0,0,1.6.07,3,3,0,0,0,1.49-.48l.81-.62a4,4,0,0,0,1-1.77l.15-1.06a4.11,4.11,0,0,0-.55-2l-.65-.91a3,3,0,0,0-1-1.12,2.85,2.85,0,0,0-1.36-.72,4.53,4.53,0,0,0-3.08.4l-.81.63a4.09,4.09,0,0,0-1,1.76l-.14,1.07a4,4,0,0,0,.55,2Z"/><path class="cls-119" d="M110,220.86l.07.49a2.93,2.93,0,0,0,.72,1.37,3.09,3.09,0,0,0,1.12,1,4.53,4.53,0,0,0,3.08.4l1-.4a4,4,0,0,0,1.43-1.44l.4-1a3.82,3.82,0,0,0,0-2.12l-.07-.5a2.94,2.94,0,0,0-.72-1.36,3,3,0,0,0-1.12-1,2.94,2.94,0,0,0-1.48-.47,3,3,0,0,0-1.6.07l-1,.4a4.11,4.11,0,0,0-1.43,1.44l-.4.95a4.05,4.05,0,0,0,0,2.13Z"/><path class="cls-119" d="M115.75,226.55c5.15,0,5.16-8,0-8s-5.16,8,0,8Z"/><path class="cls-119" d="M102.67,200.59c5.15,0,5.16-8,0-8s-5.16,8,0,8Z"/><path class="cls-119" d="M102.15,197.12c5.15,0,5.16-8,0-8s-5.16,8,0,8Z"/><path class="cls-119" d="M111.81,155.58c5.15,0,5.15-8,0-8s-5.16,8,0,8Z"/><path class="cls-119" d="M114.09,153.72c5.14,0,5.15-8,0-8s-5.16,8,0,8Z"/><path class="cls-119" d="M159.29,127.2l.5-.08a4.44,4.44,0,0,0,2.39-1.83,3,3,0,0,0,.47-1.49,3,3,0,0,0-.07-1.6l-.4-1a4.11,4.11,0,0,0-1.43-1.44l-1-.4a4.05,4.05,0,0,0-2.13,0l-.5.08a3,3,0,0,0-1.36.71,3.08,3.08,0,0,0-1,1.12,3,3,0,0,0-.47,1.49,3,3,0,0,0,.07,1.6l.4,1a4.14,4.14,0,0,0,1.44,1.44l.95.4a4.05,4.05,0,0,0,2.13,0Z"/><path class="cls-119" d="M113.18,154.16c5.15,0,5.16-8,0-8s-5.16,8,0,8Z"/><path class="cls-119" d="M110.73,154.53l.32.24a2.94,2.94,0,0,0,1.48.47,3,3,0,0,0,1.6-.07,3,3,0,0,0,1.36-.72,2.92,2.92,0,0,0,1-1.12l.4-1a4,4,0,0,0,0-2.12l-.4-1a4,4,0,0,0-1.44-1.43l-.32-.24a2.94,2.94,0,0,0-1.48-.47,3.61,3.61,0,0,0-3,.78,3.11,3.11,0,0,0-1,1.13l-.4.95a4.05,4.05,0,0,0,0,2.13l.4,1a4,4,0,0,0,1.44,1.44Z"/><path class="cls-119" d="M101.93,199.55c5.15,0,5.16-8,0-8s-5.16,8,0,8Z"/><path class="cls-119" d="M103,199.41l.28,0a3,3,0,0,0,1.36-.72,2.92,2.92,0,0,0,1-1.12,2.86,2.86,0,0,0,.48-1.49,3.07,3.07,0,0,0-.07-1.59l-.41-1a3.92,3.92,0,0,0-1.43-1.43l-1-.41a4,4,0,0,0-2.12,0l-.28,0A3.85,3.85,0,0,0,98,195a3.11,3.11,0,0,0,.07,1.6l.41.95A4,4,0,0,0,99.91,199l1,.4a4,4,0,0,0,2.12,0Z"/><path class="cls-119" d="M102.56,198c5.15,0,5.16-8,0-8s-5.15,8,0,8Z"/><path class="cls-119" d="M110.89,223.09l0,.28a3.14,3.14,0,0,0,.72,1.36,3.08,3.08,0,0,0,1.12,1,4.53,4.53,0,0,0,3.08.4l1-.4a4.14,4.14,0,0,0,1.44-1.44l.4-.95a4.05,4.05,0,0,0,0-2.13l0-.28a3.14,3.14,0,0,0-.72-1.36,3,3,0,0,0-1.12-1,4.53,4.53,0,0,0-3.08-.4l-1,.4A4,4,0,0,0,111.3,220l-.41,1a4.05,4.05,0,0,0,0,2.13Z"/><path class="cls-119" d="M137.52,242.5c5.15,0,5.16-8,0-8s-5.16,8,0,8Z"/><path class="cls-119" d="M196.55,125.47l-.28,0a3,3,0,0,0-1.36.72,2.92,2.92,0,0,0-1,1.12,4.39,4.39,0,0,0-.4,3.08l.4,1a4,4,0,0,0,1.43,1.43l1,.41a4.05,4.05,0,0,0,2.13,0l.28,0a3,3,0,0,0,1.36-.71,3.08,3.08,0,0,0,1-1.12,3,3,0,0,0,.47-1.49,3,3,0,0,0-.07-1.6l-.4-.95a4.14,4.14,0,0,0-1.44-1.44l-.95-.4a4.05,4.05,0,0,0-2.13,0Z"/><path class="cls-119" d="M226.55,155.91l-.28,0a2.94,2.94,0,0,0-1.36.72,3,3,0,0,0-1,1.12,4.53,4.53,0,0,0-.4,3.08l.4,1a4,4,0,0,0,1.44,1.43l1,.4a4.05,4.05,0,0,0,2.13,0l.28,0a3.88,3.88,0,0,0,2.87-3.32,3.11,3.11,0,0,0-.08-1.6l-.4-.95a4,4,0,0,0-1.43-1.44l-1-.4a4.05,4.05,0,0,0-2.13,0Z"/><path class="cls-119" d="M232.26,210.2c5.14,0,5.15-8,0-8s-5.16,8,0,8Z"/><path class="cls-120" d="M192.26,140.56c-18.69-7.29-39-3-55.23,8.05-16.57,11.31-28.19,34-18.16,53.4a36.4,36.4,0,0,0,2.14,3.58,47.71,47.71,0,0,0,17.73,22.81c17,11.42,37.51,10,55,.24,8.26-4.61,16.4-10,21.92-17.89,6.06-8.68,8.34-18.61,7.84-29.07C222.59,163.19,209.16,147.14,192.26,140.56Z"/><path class="cls-121" d="M223.47,181.68c.51,10.46-1.77,20.39-7.84,29.06-5.51,7.9-13.65,13.28-21.91,17.9-17.47,9.75-38,11.19-55-.24a45.4,45.4,0,0,1-9.71-8.87c14.14,4.56,29.53,2,43.07-5.57,8.26-4.61,16.39-10,21.91-17.89,6.07-8.67,8.34-18.61,7.84-29.06a44.68,44.68,0,0,0-11.31-27.09c.57.2,1.15.41,1.72.63C209.16,147.14,222.58,163.19,223.47,181.68Z"/><path class="cls-122" d="M189.13,145.56a38.15,38.15,0,0,0-15.31.9c-6.22.31-12.4,2.24-18.24,4.6-6.58,2.67-10.74,10.16-10.24,17.2a27.18,27.18,0,0,0,3.6,25.44c4.17,9.91,14,17.72,25,18.62,16.09,1.3,31.88-8.63,37.32-24C217.64,170.26,209.33,149.08,189.13,145.56Z"/><path class="cls-123" d="M153.64,155.05c-5.46-1-10,1.54-13.61,5.37-5,1.93-8.13,7.79-8.74,13.27a17.8,17.8,0,0,0,6.86,15.81,16.22,16.22,0,0,0,16.26,1.9,23.77,23.77,0,0,0,9.29-8.1A20.12,20.12,0,0,0,167,169,16.62,16.62,0,0,0,153.64,155.05Z"/><path class="cls-4" d="M199,162l-1-3.32A12.82,12.82,0,0,0,194,153.5l-2.87-1.61a13,13,0,0,0-6.7-.78l-.34,0a9.82,9.82,0,0,0-4.75,1.83,11.67,11.67,0,0,0-5.73,7.74,9.72,9.72,0,0,0-.36,5.08l1,3.32a12.89,12.89,0,0,0,4.12,5.13l2.87,1.61a13,13,0,0,0,6.69.78l.35-.05a9.79,9.79,0,0,0,4.74-1.83,11.59,11.59,0,0,0,5.73-7.74A9.62,9.62,0,0,0,199,162Z"/><path class="cls-4" d="M166.83,163.24c-1.34-6.86-7.5-11.91-14.64-10.84-6.67,1-12.18,7.8-10.84,14.64S148.85,179,156,177.88C162.66,176.89,168.17,170.07,166.83,163.24Z"/><path class="cls-124" d="M182.35,161.38c-7.18,1.07-5.52,12.23,1.67,11.16S189.54,160.31,182.35,161.38Z"/><path class="cls-124" d="M156.41,162.61c-7.17,1.07-5.52,12.23,1.67,11.16S163.6,161.54,156.41,162.61Z"/><path class="cls-125" d="M199.25,185.14c-4.53-2.8-10.29-1.46-14.89.42-6.13,2.51-12.18,6.06-18.93,6.5s-13-3.58-19.88-3.53c-2.85,0-5.92.73-7.82,3a2.78,2.78,0,0,0-1.23,1.53,12.72,12.72,0,0,0-.32,1.46,3,3,0,0,0-.53,1.5,11,11,0,0,0,3.48,9.29,9.23,9.23,0,0,0,6.65,2.5c3.62,1.4,7.82,1.36,11.7,2,11.58,1.77,23.25,9.66,35,3.79C201,209.31,210,191.77,199.25,185.14Z"/><path class="cls-126" d="M169.33,191.8l1.28,8.54-11.71,1.75-1.59-10.65a24.06,24.06,0,0,0,7.83,1A24.38,24.38,0,0,0,169.33,191.8Z"/><path class="cls-126" d="M183.29,186.28,185,197.84l-11.71,1.75L172,191C175.88,189.73,179.58,187.84,183.29,186.28Z"/><path class="cls-4" d="M169.33,191.8l1.28,8.54-11.71,1.75-1.59-10.65a24.06,24.06,0,0,0,7.83,1A24.38,24.38,0,0,0,169.33,191.8Z"/><path class="cls-4" d="M183.29,186.28,185,197.84l-11.71,1.75L172,191C175.88,189.73,179.58,187.84,183.29,186.28Z"/><path class="cls-127" d="M202.81,201.44c-2.08,5.42-6.23,10.44-10.27,12.46-8.25,4.12-16.45,1.47-24.62-1.09a3,3,0,0,1,1.2-2.94,36.94,36.94,0,0,1,8.58-5.65c3.17-1.33,6.66-1.08,9.8-2.34,3.31-1.33,6.11-2.28,9.75-1.76A21.58,21.58,0,0,1,202.81,201.44Z"/></svg>